<?xml version="1.0" standalone="no"?>
<!DOCTYPE svg PUBLIC "-//W3C//DTD SVG 20010904//EN"
 "http://www.w3.org/TR/2001/REC-SVG-20010904/DTD/svg10.dtd">
<svg version="1.0" xmlns="http://www.w3.org/2000/svg"
 width="1450.000000pt" height="1450.000000pt" viewBox="0 0 1450.000000 1450.000000"
 preserveAspectRatio="xMidYMid meet">

<g transform="translate(0.000000,1450.000000) scale(0.100000,-0.100000)"
fill="#000000" stroke="none">
<path d="M0 7250 l0 -7250 2425 0 2425 0 0 223 c0 625 48 1290 130 1813 33
211 73 452 90 544 27 141 26 137 43 204 9 33 14 63 11 67 -2 5 0 16 5 26 5 10
20 69 32 131 12 61 25 112 28 112 4 0 7 17 8 38 2 65 10 95 27 104 9 5 14 13
11 18 -3 5 4 8 15 7 11 -1 20 -5 20 -9 0 -4 4 -8 8 -8 4 0 6 15 4 33 -2 18 3
60 12 94 25 96 20 198 -9 187 -8 -4 -15 8 -20 33 -3 21 -12 47 -19 58 -7 11
-25 56 -40 100 -35 99 -78 187 -141 284 -117 184 -180 331 -168 397 3 16 21
52 39 79 18 28 51 87 74 133 36 73 81 157 160 297 29 51 118 191 146 230 12
17 32 50 44 75 24 48 84 132 138 193 20 23 31 45 28 55 -8 26 -57 399 -62 472
-4 51 -14 83 -46 145 -36 70 -50 86 -104 124 -137 93 -412 378 -526 544 -59
87 -157 269 -192 357 -154 392 -166 454 -216 1066 -5 66 -17 160 -27 210 -25
129 -25 540 0 719 10 72 22 150 27 175 20 101 20 109 5 104 -13 -5 -13 -2 0
29 8 19 17 64 20 99 3 34 8 92 12 128 3 36 6 70 5 76 -1 7 3 25 9 40 7 16 11
34 10 41 -1 7 16 10 51 8 29 -1 70 3 90 10 26 9 37 9 35 1 -3 -15 73 -15 156
2 86 17 466 5 536 -17 19 -6 37 -8 42 -6 4 3 20 0 35 -5 19 -8 30 -8 38 0 5 5
19 10 31 10 12 0 26 5 33 12 9 9 12 8 12 -5 0 -9 7 -17 15 -17 18 0 19 12 4
27 -8 8 -8 13 0 17 6 4 11 21 11 37 0 17 -4 28 -10 24 -5 -3 -12 6 -16 20 -3
14 -12 25 -20 25 -8 0 -14 5 -14 11 0 6 -8 8 -19 4 -13 -4 -24 1 -33 13 -17
24 -75 55 -89 46 -6 -3 -16 1 -22 9 -17 23 -130 58 -139 44 -5 -8 -18 -5 -44
9 -27 14 -38 16 -41 7 -6 -17 -32 -16 -39 1 -6 16 -72 5 -84 -14 -4 -7 -16 -9
-29 -5 -11 3 -21 2 -21 -3 0 -6 -7 -13 -16 -16 -10 -4 -13 -2 -8 6 5 8 2 9
-12 3 -10 -4 -27 -7 -36 -7 -10 0 -21 -4 -24 -10 -4 -6 -10 -5 -16 3 -6 10 -7
7 -3 -8 5 -17 2 -23 -8 -23 -9 0 -18 -6 -20 -12 -4 -10 -6 -10 -6 0 -1 19 -16
15 -71 -19 -54 -33 -69 -59 -19 -34 34 18 43 16 33 -8 -3 -9 -16 -16 -27 -15
-12 0 -34 -3 -49 -7 -16 -4 -28 -5 -28 -1 0 14 66 78 96 92 19 9 34 21 34 26
0 5 4 7 9 4 5 -3 14 1 21 9 16 19 7 19 -32 -1 -24 -12 -32 -13 -38 -3 -6 9
-12 8 -25 -4 -20 -21 -43 -23 -26 -4 6 8 8 16 5 20 -10 10 -45 -27 -66 -70
-11 -24 -27 -43 -35 -43 -9 0 -13 6 -9 15 4 11 -1 15 -18 15 -34 0 -56 -10
-56 -25 0 -8 -3 -16 -7 -18 -5 -3 -9 52 -11 121 -1 70 -7 141 -11 158 -5 17
-8 103 -6 190 l2 159 37 78 c20 42 41 77 47 77 5 0 9 9 9 21 0 12 4 18 11 13
6 -3 15 0 20 7 7 12 10 12 18 1 5 -9 10 0 15 30 8 53 37 119 51 114 12 -4 12
-1 -15 -186 -12 -79 -26 -152 -31 -161 -6 -12 -4 -19 7 -23 11 -4 14 -13 10
-30 -3 -14 -2 -27 3 -30 9 -6 81 67 81 82 0 10 76 92 86 92 5 0 29 28 54 61
25 33 55 72 67 85 25 27 58 85 55 96 -1 4 7 10 18 13 11 4 20 12 20 19 0 8 7
19 15 26 19 16 19 30 -1 30 -8 0 -12 5 -9 11 4 6 13 8 20 5 13 -5 30 22 21 31
-5 5 -21 -6 -62 -44 l-24 -22 0 23 c0 13 18 42 43 68 81 87 107 120 101 130
-4 6 -10 5 -15 -3 -8 -12 -11 -11 -19 1 -9 12 -10 12 -8 -5 2 -13 -4 -21 -17
-23 -25 -5 -55 -41 -48 -59 3 -9 -4 -13 -21 -13 -14 0 -26 -4 -26 -10 0 -5
-10 -12 -22 -16 -30 -8 -75 -63 -60 -73 13 -8 8 -84 -6 -89 -6 -2 -8 -11 -5
-21 3 -10 0 -22 -6 -25 -6 -4 -11 -14 -11 -23 0 -8 -9 -26 -20 -40 -11 -14
-20 -32 -20 -39 0 -22 -48 -86 -53 -72 -4 10 -6 10 -6 1 -1 -7 -7 -10 -15 -7
-10 4 -16 -5 -21 -25 -4 -17 -15 -36 -26 -41 -23 -13 -23 -13 -4 39 24 70 47
111 57 105 5 -3 12 3 15 14 3 12 11 18 18 16 8 -3 15 7 19 29 4 22 15 39 31
47 25 14 33 30 15 30 -5 0 -10 -5 -10 -11 0 -6 -7 -8 -16 -5 -8 3 -24 1 -35
-4 -25 -14 -24 1 1 33 11 14 20 28 20 31 0 13 -28 5 -45 -14 -10 -11 -20 -18
-23 -16 -2 3 21 35 52 71 44 52 56 73 56 101 0 25 4 34 16 34 17 0 43 27 44
44 0 4 -9 6 -20 3 -10 -3 -21 0 -24 7 -5 11 -7 8 -35 -34 -6 -8 -12 -12 -14
-10 -2 3 14 32 35 65 34 52 40 50 20 -4 -3 -9 0 -12 9 -9 8 3 16 13 18 23 4
21 15 33 55 59 23 15 30 16 38 5 7 -10 11 -11 14 -2 3 7 11 10 19 7 7 -3 47
24 89 61 42 36 76 61 76 55 0 -20 -45 -90 -57 -90 -7 0 -13 -5 -13 -11 0 -6 7
-8 16 -5 9 3 18 6 20 6 2 0 4 6 4 14 0 7 16 26 35 40 19 15 35 24 35 21 0 -10
-75 -120 -87 -128 -18 -11 -16 -27 4 -27 13 0 14 -3 5 -12 -7 -7 -12 -17 -12
-22 0 -6 5 -3 11 7 5 9 18 17 29 17 10 0 21 6 23 13 2 6 3 -1 1 -18 l-4 -30
24 28 c14 16 23 34 20 42 -6 15 33 27 40 11 2 -6 5 -1 5 12 1 12 7 22 15 22 8
0 17 6 19 13 3 7 6 7 6 1 1 -17 -39 -59 -54 -56 -8 1 -13 -5 -12 -17 1 -12 7
-18 18 -16 10 2 19 -4 22 -16 5 -19 37 -27 37 -9 0 6 7 10 15 10 8 0 12 6 9
14 -3 8 3 17 15 21 11 3 22 14 24 23 4 15 5 15 6 1 0 -9 -5 -22 -13 -29 -8 -6
-12 -18 -9 -26 4 -10 -2 -17 -14 -20 -12 -3 -26 -17 -32 -30 -17 -38 -13 -40
19 -6 16 17 41 39 55 48 13 9 22 20 19 26 -3 5 4 17 15 27 12 10 21 23 21 29
0 16 31 23 46 11 12 -9 13 -6 8 18 -4 20 -1 33 10 42 9 8 16 17 16 22 0 4 16
24 35 45 19 20 33 39 30 43 -2 4 1 13 7 21 8 12 9 12 4 -2 -3 -10 -1 -18 4
-18 6 0 10 -5 10 -11 0 -5 -4 -8 -9 -5 -5 3 -11 -4 -14 -15 -5 -20 -4 -20 12
-5 10 9 18 28 18 42 0 15 10 32 22 40 11 8 21 22 21 31 0 9 6 13 14 10 8 -3
17 -1 19 6 3 9 8 9 18 0 21 -20 26 -16 39 33 9 31 16 42 23 35 8 -8 7 -15 -1
-23 -15 -15 -16 -32 -2 -23 13 8 13 2 -3 -29 -17 -31 -86 -96 -104 -96 -7 0
-13 -7 -13 -15 0 -15 16 -21 22 -7 5 11 75 62 86 62 5 0 14 10 20 23 6 12 11
16 11 10 1 -7 5 -13 11 -13 5 0 9 3 9 8 -3 18 2 33 9 28 4 -2 34 22 66 55 42
41 65 58 77 54 9 -3 20 -1 24 5 3 5 12 10 18 10 19 -1 -36 -40 -56 -40 -10 0
-15 -4 -12 -10 3 -5 1 -10 -4 -10 -6 0 -11 -8 -11 -17 1 -17 1 -17 11 0 5 9
17 17 25 17 9 0 22 7 31 16 9 8 22 13 29 10 8 -3 14 -1 14 5 0 11 49 33 68 30
7 -1 15 5 18 14 3 8 15 15 25 15 11 0 19 7 19 18 0 11 8 17 24 17 23 0 24 -1
8 -19 -16 -18 -16 -18 16 -11 26 5 32 4 32 -11 0 -25 12 -9 14 18 1 17 8 24
29 26 15 2 27 9 27 15 0 7 9 18 21 25 17 11 20 11 17 -4 -2 -9 3 -19 10 -21 7
-3 12 4 12 15 0 17 7 20 45 20 25 0 48 -4 51 -10 4 -6 10 -5 15 3 6 10 9 11 9
2 0 -20 15 -15 44 13 21 22 26 24 26 9 0 -14 3 -15 14 -6 9 8 22 8 38 2 19 -7
29 -6 41 6 10 10 22 13 34 8 21 -9 21 -9 50 -1 16 5 23 2 28 -14 8 -24 25 -27
25 -4 0 12 3 14 13 6 14 -12 50 -6 82 14 12 7 28 9 40 4 18 -7 19 -8 3 -15
-10 -4 -18 -12 -18 -17 0 -7 5 -6 13 1 8 6 23 9 35 6 16 -3 22 1 22 13 0 10 3
13 8 6 4 -7 32 -8 75 -4 37 3 70 3 73 1 9 -9 86 -10 109 -1 13 5 36 5 52 0 15
-4 22 -9 16 -9 -7 -1 -13 -6 -13 -12 0 -7 10 -9 24 -5 18 4 28 1 35 -11 8 -16
11 -15 31 7 15 17 20 19 16 8 -7 -24 9 -31 29 -12 15 15 16 15 10 -8 -6 -22
-4 -24 34 -23 22 0 43 4 47 8 4 4 13 2 20 -4 9 -7 19 -7 34 1 12 6 25 8 28 4
4 -4 1 -9 -5 -11 -27 -10 -11 -21 17 -13 20 6 29 5 27 -3 -2 -13 70 -17 95 -5
22 11 48 0 49 -21 0 -12 2 -12 9 4 6 15 9 16 9 4 1 -9 -8 -24 -19 -34 -23 -21
-28 -44 -5 -25 8 7 15 9 15 6 0 -4 7 -1 15 8 8 8 15 21 15 30 0 20 17 30 24
14 3 -7 3 -1 0 15 -5 20 -2 27 10 27 19 0 22 -39 4 -60 -7 -8 -2 -5 12 7 l26
23 17 -29 c14 -24 14 -31 3 -40 -7 -6 -16 -7 -21 -3 -4 4 -6 0 -3 -8 3 -8 12
-14 20 -12 9 1 18 -7 21 -17 4 -17 1 -19 -24 -14 -16 3 -29 2 -29 -3 0 -12 51
-35 62 -28 5 3 15 0 23 -6 11 -9 15 -9 15 -1 0 6 6 11 14 11 10 0 12 -7 9 -22
-5 -22 -5 -22 13 2 20 27 55 59 66 60 3 0 3 -10 0 -22 -5 -22 -5 -22 31 4 35
28 36 28 39 6 2 -17 10 -22 38 -23 19 -1 41 3 48 8 8 6 12 6 12 -2 0 -6 -5
-11 -11 -11 -8 0 -9 -13 -5 -39 3 -23 2 -42 -4 -46 -6 -4 -7 1 -4 12 4 14 4
15 -4 4 -5 -7 -7 -22 -4 -33 4 -18 5 -18 25 3 l20 21 15 -33 c11 -26 16 -30
19 -16 8 32 19 17 15 -22 -3 -33 0 -40 17 -46 12 -3 21 -14 21 -23 -1 -15 -2
-15 -14 1 -9 12 -16 14 -21 8 -11 -19 6 -33 32 -26 24 6 25 4 20 -24 -4 -18
-2 -31 3 -31 6 0 10 -9 10 -19 0 -11 8 -22 18 -24 16 -4 16 -5 0 -6 -25 -1
-23 -42 2 -64 11 -9 20 -22 21 -29 2 -53 10 -93 19 -96 5 -2 10 -12 10 -22 0
-10 5 -22 10 -25 16 -10 12 -28 -5 -21 -22 8 -18 -7 6 -27 12 -11 18 -25 15
-34 -5 -11 -2 -14 10 -9 14 5 15 4 4 -9 -10 -13 -9 -15 8 -15 16 0 19 -5 14
-22 -4 -17 -2 -20 11 -15 14 5 17 0 17 -31 0 -26 6 -42 20 -52 15 -11 18 -22
14 -44 -3 -17 0 -41 7 -53 11 -21 13 -21 25 -5 13 16 14 16 12 -3 -3 -48 3
-75 16 -75 10 0 16 -13 18 -37 2 -29 7 -38 21 -37 20 2 21 -3 2 -36 -19 -33
-18 -41 3 -33 14 5 15 4 6 -8 -12 -15 -12 -42 1 -72 4 -10 5 -21 1 -24 -3 -4
-6 1 -6 10 0 9 -4 17 -10 17 -17 0 -11 -29 9 -51 11 -12 24 -18 30 -15 5 4 15
-3 21 -14 6 -11 15 -18 21 -15 5 4 9 -1 9 -10 0 -10 -5 -13 -12 -9 -9 5 -9 3
1 -9 7 -9 11 -28 8 -43 -3 -17 -1 -24 8 -21 6 3 12 0 12 -6 1 -7 3 -41 6 -77
5 -58 4 -63 -9 -46 -12 18 -14 18 -14 3 0 -10 7 -20 16 -24 12 -4 14 -14 9
-39 -5 -27 -3 -33 9 -28 23 9 27 -86 3 -111 -10 -11 -16 -28 -13 -40 3 -11 1
-27 -4 -35 -8 -13 -11 -13 -19 -1 -5 7 -14 10 -20 6 -9 -5 -9 -10 -1 -20 7 -9
7 -21 0 -41 -6 -15 -8 -45 -5 -66 5 -25 3 -38 -4 -38 -6 0 -11 -8 -11 -17 0
-15 2 -16 10 -3 8 12 10 11 10 -7 0 -13 6 -23 13 -23 6 0 0 -8 -15 -18 -33
-20 -35 -28 -9 -37 10 -3 22 -16 25 -28 8 -32 7 -39 -4 -32 -5 3 -10 -1 -10
-9 0 -10 6 -13 15 -10 10 4 15 0 15 -15 0 -12 5 -21 10 -21 19 0 10 -16 -9
-17 -15 -1 -18 3 -14 15 5 13 3 14 -6 6 -16 -15 4 -58 21 -48 6 4 9 1 6 -7 -3
-8 -10 -13 -16 -12 -6 2 -16 -6 -22 -17 -8 -14 -8 -20 0 -20 6 0 9 -4 6 -9 -3
-5 1 -11 9 -15 8 -3 12 -12 9 -21 -3 -8 -2 -15 4 -15 10 0 21 -28 27 -70 2
-14 9 -26 15 -28 5 -2 10 -14 10 -27 0 -13 8 -31 18 -41 16 -17 17 -17 20 8 2
14 12 34 22 43 18 17 19 16 26 -11 4 -16 7 -41 7 -57 0 -18 4 -24 10 -18 6 6
10 50 10 98 -1 56 4 97 13 113 l13 25 1 -28 c0 -16 4 -26 10 -22 6 3 10 2 10
-2 0 -5 10 -13 22 -18 14 -6 24 -21 26 -37 2 -16 9 -28 17 -28 7 0 15 -5 17
-12 3 -7 10 -8 17 -4 11 7 11 10 0 17 -20 12 -5 21 25 13 21 -5 24 -9 15 -20
-9 -11 -8 -14 5 -14 9 0 16 -4 16 -10 0 -5 7 -10 16 -10 14 0 16 8 12 53 -3
28 -3 45 -1 37 2 -8 17 -25 32 -37 l28 -22 -11 42 c-7 23 -18 53 -26 67 -8 14
-13 30 -12 37 1 6 -2 14 -8 18 -16 10 -12 25 8 25 25 0 56 -36 57 -63 0 -18 5
-21 30 -19 17 2 32 8 33 13 2 5 9 9 16 9 7 0 18 11 24 24 8 18 16 22 35 19 14
-3 33 0 44 5 15 9 27 6 54 -10 19 -12 40 -22 47 -22 8 -1 20 -12 27 -26 8 -14
14 -19 15 -12 0 27 30 -16 30 -45 0 -20 3 -24 9 -14 15 23 23 -21 23 -122 0
-75 -5 -106 -27 -167 -33 -93 -77 -251 -71 -257 6 -6 36 9 36 19 0 19 50 118
60 118 5 0 9 3 8 8 -5 16 35 142 45 142 8 0 8 3 0 11 -8 8 -7 18 3 38 15 30
21 240 8 276 -12 33 -45 64 -93 86 -47 22 -80 54 -81 76 0 7 -11 28 -24 48
-17 25 -24 46 -21 67 5 42 12 45 20 8 l7 -31 31 20 31 19 45 -31 c46 -33 136
-117 125 -117 -4 0 1 -12 11 -26 24 -38 44 -164 40 -256 -4 -70 -22 -145 -61
-248 -7 -19 -18 -53 -24 -75 -13 -42 -99 -226 -110 -235 -4 -3 -18 -23 -32
-45 -32 -52 -124 -181 -191 -269 -77 -102 -137 -166 -181 -194 -61 -38 -197
-104 -203 -98 -3 3 -14 1 -25 -5 -10 -5 -24 -6 -31 -2 -12 8 -34 11 -102 16
-38 2 -40 0 -52 -36 -7 -21 -15 -64 -17 -95 -3 -31 -10 -58 -16 -60 -5 -2 -10
-17 -10 -33 0 -23 3 -27 17 -22 11 4 12 8 5 11 -18 6 -15 22 4 22 10 0 14 5
10 16 -3 8 4 29 16 45 22 29 22 29 30 8 8 -21 9 -21 22 -4 7 10 18 15 24 11 7
-4 12 -1 13 6 0 7 5 4 11 -8 7 -16 5 -31 -10 -63 -11 -23 -16 -43 -11 -47 5
-3 7 -9 4 -14 -2 -4 -7 -43 -10 -86 -3 -44 -8 -101 -12 -129 -3 -27 -7 -70 -7
-95 -1 -25 -5 -50 -9 -57 -4 -6 -3 -14 3 -18 6 -4 8 -10 5 -15 -5 -7 -8 -60
-21 -305 -3 -71 -10 -168 -19 -260 -9 -92 -11 -270 -4 -302 4 -18 3 -33 -3
-35 -6 -2 -5 -14 1 -31 11 -28 12 -28 66 -22 92 12 182 -2 215 -33 25 -25 63
-115 100 -237 11 -35 28 -77 85 -210 20 -47 35 -96 35 -117 0 -25 -36 -77 -97
-142 -26 -28 -66 -73 -87 -99 -21 -27 -140 -153 -265 -280 -124 -128 -271
-282 -326 -342 -216 -236 -303 -328 -481 -509 -57 -57 -159 -188 -374 -476
-41 -56 -119 -158 -172 -228 -302 -395 -370 -484 -417 -551 -30 -41 -57 -79
-62 -85 -31 -37 -87 -117 -145 -207 -37 -57 -95 -147 -129 -199 -34 -52 -79
-124 -100 -160 -21 -36 -55 -90 -76 -120 -20 -30 -51 -82 -69 -115 -18 -33
-65 -113 -104 -178 -39 -65 -84 -143 -101 -173 -16 -29 -41 -73 -54 -96 -13
-24 -88 -171 -167 -327 -79 -157 -148 -289 -154 -295 -5 -5 -10 -17 -10 -26 0
-8 -14 -42 -30 -75 -16 -33 -30 -66 -30 -73 0 -7 -5 -10 -12 -6 -6 4 -8 3 -5
-3 3 -5 -14 -49 -39 -99 -24 -49 -44 -95 -44 -101 0 -7 -4 -13 -9 -13 -5 0
-12 -13 -16 -30 -3 -16 -14 -39 -24 -52 -15 -19 -31 -55 -36 -78 -5 -25 -18
-50 -26 -50 -6 0 -7 -5 -4 -10 4 -6 1 -17 -5 -25 -7 -8 -9 -15 -5 -15 4 0 0
-11 -9 -25 -9 -13 -16 -31 -16 -40 0 -8 -9 -24 -20 -35 -11 -11 -20 -29 -20
-40 0 -11 -7 -23 -16 -27 -8 -3 -13 -11 -10 -19 3 -7 0 -14 -5 -16 -6 -2 -11
-18 -11 -36 -1 -17 -5 -32 -10 -32 -4 0 -8 -8 -8 -18 0 -23 -48 -164 -61 -177
-35 -36 -158 -35 4531 -35 l4540 0 0 7250 0 7250 -7250 0 -7250 0 0 -7250z
m5320 5400 c0 -5 -5 -10 -11 -10 -5 0 -7 5 -4 10 3 6 8 10 11 10 2 0 4 -4 4
-10z m-3 -26 c-3 -3 -12 -4 -19 -1 -8 3 -5 6 6 6 11 1 17 -2 13 -5z m-27 -18
c0 -3 -4 -8 -10 -11 -5 -3 -10 -1 -10 4 0 6 5 11 10 11 6 0 10 -2 10 -4z
m-570 -276 c0 -5 -5 -10 -11 -10 -5 0 -7 5 -4 10 3 6 8 10 11 10 2 0 4 -4 4
-10z m-50 -63 c-13 -24 -102 -99 -108 -92 -3 3 1 11 7 19 7 8 10 19 7 24 -3 5
6 20 19 32 14 13 25 20 25 15 0 -4 12 5 27 19 30 30 44 19 23 -17z m800 13
c11 -7 7 -10 -18 -10 -20 0 -31 4 -27 10 8 13 26 13 45 0z m-765 -80 c-3 -5
-12 -10 -18 -10 -7 0 -6 4 3 10 19 12 23 12 15 0z m755 -30 c0 -5 -7 -7 -15
-4 -8 4 -15 8 -15 10 0 2 7 4 15 4 8 0 15 -4 15 -10z m-597 -27 c-7 -2 -9 -12
-6 -21 5 -14 3 -15 -7 -5 -11 10 -11 15 0 28 7 8 16 13 19 9 3 -4 1 -9 -6 -11z
m647 -10 c-8 -3 -19 -12 -23 -19 -4 -8 -19 -14 -32 -14 -13 0 -27 -4 -30 -10
-3 -5 -32 -10 -63 -10 -41 0 -53 3 -42 10 8 5 32 10 52 10 52 0 71 9 57 26
-10 12 -2 14 42 13 30 0 47 -3 39 -6z m-933 -25 c-3 -8 -6 -5 -6 6 -1 11 2 17
5 13 3 -3 4 -12 1 -19z m793 -68 c0 -5 -2 -10 -4 -10 -3 0 -8 5 -11 10 -3 6
-1 10 4 10 6 0 11 -4 11 -10z m108 -12 c40 -2 42 -3 25 -16 -17 -13 -17 -14 2
-12 11 1 29 2 40 1 20 -2 20 -2 1 -16 -11 -8 -17 -18 -13 -22 4 -3 15 1 24 10
14 12 23 13 36 5 10 -5 21 -7 24 -4 6 5 33 -18 33 -29 0 -4 -15 -6 -32 -4 -18
1 -41 -2 -51 -6 -10 -4 -35 -8 -55 -9 -28 -1 -38 3 -40 17 -2 10 3 17 12 17 9
0 16 4 16 9 0 5 -6 9 -12 8 -30 -1 -51 3 -45 10 4 3 2 13 -5 20 -10 12 -14 11
-29 -9 l-18 -23 4 30 c2 17 4 31 4 33 1 2 9 1 19 -2 9 -3 37 -6 60 -8z m-808
-68 c0 -5 -4 -10 -10 -10 -5 0 -10 5 -10 10 0 6 5 10 10 10 6 0 10 -4 10 -10z
m-237 -25 c-3 -9 -8 -14 -10 -11 -3 3 -2 9 2 15 9 16 15 13 8 -4z m197 -14
c-10 -20 -30 -29 -30 -14 0 10 33 44 37 39 3 -2 0 -14 -7 -25z m310 -16 c-14
-16 -50 -21 -50 -6 0 5 12 12 28 14 15 2 29 5 31 6 2 0 -2 -6 -9 -14z m-470
-25 c-6 -12 -14 -20 -17 -17 -2 3 1 14 8 26 17 26 24 19 9 -9z m570 26 c0 -3
-4 -8 -10 -11 -5 -3 -10 -1 -10 4 0 6 5 11 10 11 6 0 10 -2 10 -4z m-196 -32
c3 -8 2 -12 -4 -9 -6 3 -10 10 -10 16 0 14 7 11 14 -7z m-224 -8 c0 -8 6 -17
13 -20 8 -3 7 -8 -5 -16 -22 -13 -24 -32 -3 -24 11 5 13 2 9 -10 -6 -16 -58
-46 -79 -46 -6 0 -18 -12 -25 -27 -7 -16 -15 -23 -17 -16 -7 20 30 62 55 63
17 0 22 6 22 25 0 14 -1 27 -2 28 -2 2 3 11 10 20 8 9 11 21 7 27 -3 5 -1 10
4 10 6 0 11 -6 11 -14z m130 -26 c0 -10 -31 -23 -38 -15 -8 7 19 35 29 29 5
-3 9 -9 9 -14z m2390 10 c0 -5 -4 -10 -10 -10 -5 0 -10 5 -10 10 0 6 5 10 10
10 6 0 10 -4 10 -10z m-2017 -7 c-7 -2 -21 -2 -30 0 -10 3 -4 5 12 5 17 0 24
-2 18 -5z m-423 -23 c0 -5 -4 -10 -10 -10 -5 0 -10 5 -10 10 0 6 5 10 10 10 6
0 10 -4 10 -10z m1537 -82 c-3 -8 -6 -5 -6 6 -1 11 2 17 5 13 3 -3 4 -12 1
-19z m-1627 -8 c0 -5 -4 -10 -10 -10 -5 0 -10 5 -10 10 0 6 5 10 10 10 6 0 10
-4 10 -10z m-33 -20 c-2 -26 -27 -36 -27 -11 0 11 6 22 13 24 6 3 13 6 14 6 1
1 1 -8 0 -19z m193 0 c0 -11 -59 -44 -66 -37 -6 6 45 47 57 47 5 0 9 -4 9 -10z
m1117 -52 c-3 -7 -5 -2 -5 12 0 14 2 19 5 13 2 -7 2 -19 0 -25z m-1397 -2 c0
-3 -4 -8 -10 -11 -5 -3 -10 -1 -10 4 0 6 5 11 10 11 6 0 10 -2 10 -4z m1358
-21 c-3 -3 -9 2 -12 12 -6 14 -5 15 5 6 7 -7 10 -15 7 -18z m2202 21 c0 -3 -4
-8 -10 -11 -5 -3 -10 -1 -10 4 0 6 5 11 10 11 6 0 10 -2 10 -4z m-2230 -21 c0
-8 -5 -15 -11 -15 -6 0 -8 -9 -4 -22 5 -18 4 -20 -4 -8 -16 23 -13 60 4 60 8
0 15 -7 15 -15z m-1490 -19 c0 -3 -4 -8 -10 -11 -5 -3 -10 -1 -10 4 0 6 5 11
10 11 6 0 10 -2 10 -4z m388 -36 c-7 -10 -14 -17 -17 -15 -4 4 18 35 25 35 2
0 -1 -9 -8 -20z m1017 10 c3 -5 1 -10 -4 -10 -6 0 -11 5 -11 10 0 6 2 10 4 10
3 0 8 -4 11 -10z m-1305 -10 c0 -5 -5 -10 -11 -10 -5 0 -7 5 -4 10 3 6 8 10
11 10 2 0 4 -4 4 -10z m453 -17 c-10 -16 -24 -32 -33 -37 -8 -5 -27 -21 -41
-36 -15 -14 -31 -24 -38 -22 -16 5 -13 22 4 22 9 0 20 11 25 24 8 22 74 76 93
76 4 0 0 -12 -10 -27z m61 3 c-7 -17 -34 -23 -34 -6 0 9 32 31 38 26 1 -2 0
-11 -4 -20z m-174 -25 c0 -13 -49 -69 -50 -56 0 9 41 64 48 65 1 0 2 -4 2 -9z
m-488 -23 c-6 -6 -15 -8 -19 -4 -4 4 -1 11 7 16 19 12 27 3 12 -12z m227 19
c-2 -1 -13 -9 -24 -17 -19 -14 -19 -14 -6 3 7 9 18 17 24 17 6 0 8 -1 6 -3z
m421 -22 c-7 -9 -15 -13 -19 -10 -3 3 1 10 9 15 21 14 24 12 10 -5z m-40 -5
c0 -5 -19 -28 -42 -52 -33 -33 -43 -39 -46 -26 -2 9 13 32 35 52 39 36 53 43
53 26z m-128 -72 c-5 -20 -3 -21 10 -10 22 18 31 -9 14 -42 -10 -19 -16 -22
-24 -14 -9 9 -13 4 -18 -20 -4 -17 -13 -37 -20 -43 -25 -21 -16 27 11 59 19
23 24 37 19 61 -4 19 -2 31 4 31 6 0 8 -10 4 -22z m158 -18 c0 -5 -5 -10 -11
-10 -5 0 -7 5 -4 10 3 6 8 10 11 10 2 0 4 -4 4 -10z m64 -9 c-22 -21 -27 -21
-18 3 3 9 13 16 22 16 13 0 12 -3 -4 -19z m-304 -11 c0 -5 -4 -10 -10 -10 -5
0 -10 5 -10 10 0 6 5 10 10 10 6 0 10 -4 10 -10z m254 -29 c-7 -8 -35 9 -29
19 4 6 11 5 20 -3 7 -6 11 -14 9 -16z m130 3 c4 -10 1 -14 -6 -12 -15 5 -23
28 -10 28 5 0 13 -7 16 -16z m-364 -13 c0 -19 -102 -109 -112 -100 -3 2 -12
-2 -22 -10 -9 -8 -19 -11 -22 -8 -9 9 19 34 32 30 6 -2 35 19 65 47 57 53 59
55 59 41z m-80 -26 c-7 -9 -15 -13 -17 -11 -6 6 20 36 26 30 2 -2 -2 -10 -9
-19z m428 5 c3 -7 0 -10 -6 -6 -6 3 -13 2 -17 -4 -7 -12 -45 -14 -45 -2 0 9
41 30 54 28 6 -1 12 -8 14 -16z m252 -95 c0 -9 -6 -12 -16 -8 -13 5 -13 7 -2
14 17 11 18 11 18 -6z m-270 -83 c0 -10 -8 -18 -19 -19 -19 -2 -19 -1 -3 17
22 23 22 23 22 2z m-260 -42 c0 -5 -5 -10 -11 -10 -5 0 -7 5 -4 10 3 6 8 10
11 10 2 0 4 -4 4 -10z m-110 -111 c-7 -11 -14 -18 -17 -15 -3 3 0 12 7 21 18
21 23 19 10 -6z m250 -49 c-6 -11 -20 -24 -31 -31 -19 -10 -20 -9 -10 10 9 16
36 39 49 41 1 0 -2 -9 -8 -20z m-173 -141 c-22 -31 -28 -8 -9 31 15 31 17 33
20 13 2 -13 -3 -32 -11 -44z m-99 -781 c-3 -7 -15 -14 -29 -16 -23 -2 -23 -2
-5 13 24 18 39 20 34 3z m145 -15 c-7 -2 -19 -2 -25 0 -7 3 -2 5 12 5 14 0 19
-2 13 -5z m-33 -43 c0 -5 -4 -10 -10 -10 -5 0 -10 5 -10 10 0 6 5 10 10 10 6
0 10 -4 10 -10z m4666 -509 c7 -9 27 -34 44 -56 l31 -40 -21 -17 c-41 -33 -60
-18 -66 52 -2 19 -5 51 -8 70 -3 19 -3 29 1 21 3 -8 12 -21 19 -30z m-320
-253 c4 -6 3 -8 -4 -4 -5 3 -12 0 -15 -6 -2 -7 -8 -9 -13 -5 -5 4 -2 12 6 17
19 12 17 12 26 -2z m-176 -58 c0 -5 -5 -10 -11 -10 -5 0 -7 5 -4 10 3 6 8 10
11 10 2 0 4 -4 4 -10z m-686 -6206 c24 -23 19 -49 -9 -62 -34 -16 -32 -17 -39
23 -10 54 14 74 48 39z m-100 -17 c-3 -8 -11 -14 -18 -14 -8 0 -12 6 -9 14 3
7 11 13 19 13 7 0 11 -6 8 -13z m-15 -51 c10 -12 8 -19 -9 -36 -11 -11 -32
-25 -46 -30 -20 -8 -24 -15 -19 -33 4 -12 14 -27 22 -34 9 -7 10 -13 4 -17
-16 -10 -90 79 -82 99 2 6 5 19 6 30 1 14 9 20 28 21 15 1 30 4 34 8 12 11 50
6 62 -8z m182 -63 c17 -46 -63 -106 -108 -82 -33 17 -26 32 32 72 56 39 65 40
76 10z m-186 -23 c-3 -5 -11 -10 -16 -10 -6 0 -7 5 -4 10 3 6 11 10 16 10 6 0
7 -4 4 -10z m15 -60 c-18 -11 -24 -6 -16 16 5 14 9 15 19 5 9 -9 9 -14 -3 -21z
m-216 -45 c3 -8 18 -20 33 -26 22 -8 35 -5 75 15 26 14 50 21 53 15 4 -5 24
-9 46 -9 47 0 49 -10 8 -44 -47 -40 -78 -44 -104 -14 -20 23 -24 24 -46 12
-13 -7 -41 -13 -62 -14 -30 0 -40 5 -49 25 -8 19 -8 28 2 40 16 19 36 19 44 0z"/>
<path d="M4770 11410 c0 -5 5 -10 11 -10 5 0 7 5 4 10 -3 6 -8 10 -11 10 -2 0
-4 -4 -4 -10z"/>
<path d="M6445 11780 c-3 -5 -1 -10 4 -10 6 0 11 5 11 10 0 6 -2 10 -4 10 -3
0 -8 -4 -11 -10z"/>
<path d="M6540 11779 c0 -5 5 -7 10 -4 6 3 10 8 10 11 0 2 -4 4 -10 4 -5 0
-10 -5 -10 -11z"/>
<path d="M5891 11574 c0 -11 3 -14 6 -6 3 7 2 16 -1 19 -3 4 -6 -2 -5 -13z"/>
<path d="M8195 11570 c3 -5 11 -10 16 -10 6 0 7 5 4 10 -3 6 -11 10 -16 10 -6
0 -7 -4 -4 -10z"/>
<path d="M5665 11489 c-4 -6 -5 -12 -2 -15 2 -3 7 2 10 11 7 17 1 20 -8 4z"/>
<path d="M8272 11450 c0 -14 2 -19 5 -12 2 6 2 18 0 25 -3 6 -5 1 -5 -13z"/>
<path d="M5655 11410 c-3 -5 -1 -10 4 -10 6 0 11 5 11 10 0 6 -2 10 -4 10 -3
0 -8 -4 -11 -10z"/>
<path d="M5600 11400 c0 -5 -9 -10 -21 -10 -11 0 -17 -4 -14 -10 3 -5 -1 -10
-9 -10 -9 0 -16 -6 -16 -14 0 -8 -6 -16 -12 -19 -8 -2 -9 -8 -4 -13 5 -5 11
-4 13 4 4 11 29 25 63 37 27 9 40 19 40 31 0 8 -4 14 -10 14 -5 0 -10 -6 -10
-14 0 -8 -5 -18 -11 -22 -8 -4 -9 0 -4 15 3 11 4 21 1 21 -3 0 -6 -4 -6 -10z"/>
<path d="M5460 11290 c0 -5 5 -10 11 -10 5 0 7 5 4 10 -3 6 -8 10 -11 10 -2 0
-4 -4 -4 -10z"/>
<path d="M4930 11250 c-8 -5 -12 -12 -9 -15 4 -3 12 1 19 10 14 17 11 19 -10
5z"/>
<path d="M8388 11153 c7 -3 16 -2 19 1 4 3 -2 6 -13 5 -11 0 -14 -3 -6 -6z"/>
<path d="M4925 11140 c-3 -6 1 -7 9 -4 18 7 21 14 7 14 -6 0 -13 -4 -16 -10z"/>
<path d="M4832 11059 c-7 -11 -11 -23 -9 -25 7 -7 29 24 25 36 -2 6 -9 1 -16
-11z"/>
<path d="M4812 10986 c-31 -36 -28 -56 4 -24 15 14 25 31 23 37 -3 7 -14 2
-27 -13z"/>
<path d="M4963 10884 c-25 -28 -27 -34 -15 -34 5 0 18 14 30 30 27 37 16 40
-15 4z"/>
<path d="M7330 10170 c0 -5 7 -10 16 -10 8 0 12 -4 9 -10 -7 -11 -73 -11 -97
1 -10 6 -19 5 -23 -1 -4 -6 -14 -5 -28 4 -13 8 -30 11 -42 6 -11 -4 -33 -3
-48 1 -22 6 -28 5 -24 -5 5 -11 -7 -13 -56 -11 -34 2 -62 4 -62 5 0 0 -31 3
-68 5 -38 3 -81 7 -97 10 -33 6 -70 -6 -93 -29 -14 -15 -17 -15 -32 1 -14 14
-18 14 -26 2 -5 -8 -9 -18 -9 -24 0 -5 -10 5 -21 23 -24 36 -39 41 -39 12 0
-24 -6 -25 -28 -4 -14 15 -16 15 -23 -3 -6 -16 -18 -20 -61 -22 -29 -2 -59 -3
-66 -4 -8 0 -19 -8 -24 -17 -7 -10 -19 -15 -32 -13 -13 3 -29 -4 -40 -16 -11
-12 -25 -21 -33 -21 -7 0 -13 -5 -13 -10 0 -6 -11 -15 -25 -20 -24 -9 -35 -30
-15 -30 6 0 10 -7 10 -15 0 -8 -9 -15 -20 -15 -16 0 -19 -4 -12 -17 5 -10 7
-23 5 -30 -6 -17 37 -62 53 -56 11 4 10 9 -6 23 -11 9 -17 20 -13 23 7 8 53
-34 53 -49 0 -7 9 -14 20 -17 13 -3 20 -14 20 -30 0 -14 5 -29 12 -33 8 -5 9
0 6 14 -4 12 -2 22 3 22 5 0 9 -5 9 -11 0 -8 5 -8 15 1 8 7 15 8 15 3 0 -5 7
-10 15 -10 8 0 15 5 15 11 0 6 8 3 17 -7 13 -13 15 -20 5 -29 -7 -7 -12 -20
-12 -30 0 -10 -6 -17 -12 -15 -7 1 -12 -4 -10 -12 2 -9 -4 -12 -17 -8 -14 3
-18 1 -14 -9 3 -8 -1 -14 -11 -14 -13 0 -15 -4 -6 -19 14 -27 13 -32 -6 -29
-21 4 -27 -13 -11 -32 19 -24 67 -51 77 -45 6 4 7 -1 3 -12 -6 -17 -5 -17 13
-2 35 29 46 32 44 13 -4 -33 0 -45 10 -39 6 4 8 11 5 16 -4 5 -2 9 4 9 5 0 11
8 14 18 3 12 6 10 12 -11 5 -20 3 -33 -10 -47 -10 -11 -15 -26 -12 -35 4 -8 1
-15 -5 -15 -7 0 -9 -13 -5 -35 3 -19 2 -35 -4 -35 -5 0 -9 -5 -9 -11 0 -5 5
-7 10 -4 16 10 23 -24 9 -43 -11 -14 -11 -15 1 -4 19 17 33 15 26 -4 -7 -18
20 -49 52 -58 12 -4 22 -14 22 -22 0 -9 11 -14 29 -14 17 0 33 -5 37 -11 4 -8
9 -7 15 2 8 12 11 11 19 -1 9 -14 14 -7 11 13 -2 10 36 -10 45 -24 4 -8 9 -7
15 2 7 11 9 9 9 -6 0 -14 3 -16 9 -7 6 10 10 10 21 -3 9 -11 16 -12 25 -5 9 8
17 7 26 -2 9 -8 40 -13 79 -13 54 0 65 3 68 18 3 15 -18 23 -50 18 -5 0 -8 6
-8 15 0 10 -6 14 -15 10 -12 -4 -37 23 -39 44 0 3 -6 4 -13 2 -8 -2 -10 3 -7
13 3 8 15 15 25 15 26 0 24 27 -3 36 l-21 6 24 19 c31 24 59 25 53 2 -5 -16 4
-18 76 -18 56 1 84 5 95 15 12 13 7 15 -44 15 -33 0 -57 3 -54 7 2 5 28 8 58
8 30 0 57 5 60 11 5 7 13 5 25 -6 12 -11 19 -12 22 -5 2 6 23 14 47 17 39 5
44 4 38 -11 -4 -10 -7 -20 -7 -22 0 -3 -4 -2 -10 1 -5 3 -10 2 -10 -4 0 -20
79 -4 101 20 14 17 19 19 15 7 -3 -10 -1 -20 4 -23 6 -4 10 -3 10 2 0 11 134
11 141 0 4 -5 19 -1 34 9 31 20 72 20 123 -2 31 -13 33 -12 27 6 -9 27 9 25
28 -2 13 -19 16 -20 16 -6 1 9 11 20 24 24 19 6 13 10 -37 26 -32 10 -62 15
-67 12 -5 -3 -6 2 -3 11 5 11 2 14 -12 8 -13 -5 -15 -3 -9 7 6 10 3 12 -13 8
-16 -4 -20 -1 -19 13 1 16 7 18 42 12 22 -3 50 -10 63 -14 19 -8 23 -6 20 8
-2 10 -10 17 -16 15 -7 -1 -12 2 -12 6 0 5 -20 19 -45 31 -25 12 -45 28 -45
36 0 7 -13 16 -30 20 -16 4 -30 10 -30 15 0 4 -17 11 -37 15 -21 4 -42 10 -48
13 -5 4 -14 7 -20 7 -5 0 -41 10 -80 22 -103 33 -194 52 -200 43 -3 -5 13 -11
36 -15 28 -5 38 -10 30 -18 -7 -7 -32 -6 -83 1 -40 7 -104 9 -143 6 -38 -3
-92 -7 -120 -9 -27 -1 -66 -9 -85 -17 -45 -20 -57 -12 -29 18 24 26 87 49 164
59 l50 7 -40 15 c-22 8 -46 15 -52 16 -18 1 -16 22 4 38 12 11 17 11 20 2 4
-10 10 -9 26 1 22 14 88 24 199 31 44 3 58 1 62 -12 5 -11 14 -13 33 -8 14 3
29 2 32 -4 4 -6 24 -6 54 0 26 4 54 6 63 2 14 -5 12 -8 -7 -19 -23 -13 -23
-14 16 -14 69 -1 95 -5 95 -14 0 -4 14 -6 30 -4 17 3 30 1 30 -4 0 -4 7 -8 15
-8 8 0 15 -4 15 -10 0 -5 -10 -10 -22 -10 -17 0 -19 -3 -10 -12 9 -9 15 -9 23
-1 12 12 49 6 49 -8 0 -5 -4 -9 -10 -9 -5 0 -10 -8 -10 -17 1 -17 1 -17 14 0
7 9 19 17 25 17 7 0 9 5 6 10 -3 6 -1 10 5 10 7 0 10 -6 7 -13 -10 -26 7 -39
38 -27 18 7 31 7 34 1 9 -15 62 -25 70 -14 13 21 48 24 55 6 4 -10 2 -19 -3
-21 -6 -2 -11 -8 -11 -14 0 -6 15 -7 40 -3 27 5 40 3 40 -5 0 -7 8 -9 21 -5
13 5 19 3 15 -3 -3 -5 3 -12 14 -15 11 -3 20 0 20 6 0 8 3 8 11 0 7 -7 24 -8
51 -1 52 11 64 18 48 28 -7 4 8 10 35 15 47 7 47 7 22 20 -15 7 -49 12 -77 11
-48 -3 -66 6 -35 18 8 3 15 1 15 -3 0 -12 37 -2 50 14 8 10 -2 17 -45 30 -54
17 -65 27 -45 40 6 3 10 11 10 16 0 6 -4 8 -9 5 -5 -4 -7 3 -4 14 3 11 0 20
-5 20 -13 0 -62 51 -62 64 0 5 -16 23 -35 42 -19 18 -35 38 -35 44 0 6 -6 10
-12 9 -20 -3 -68 12 -68 22 0 10 -66 29 -103 29 -15 0 -46 14 -69 30 -22 17
-47 30 -53 30 -7 0 -18 7 -25 15 -7 8 -25 13 -45 11 -24 -2 -35 2 -38 13 -4
14 -5 14 -6 0 -1 -18 -47 -24 -57 -8 -10 16 -44 10 -38 -6 9 -22 -9 -18 -24 5
-13 21 -32 27 -32 10z m120 -324 c0 -3 -4 -8 -10 -11 -5 -3 -10 -1 -10 4 0 6
5 11 10 11 6 0 10 -2 10 -4z m-920 -71 c0 -3 -9 -3 -20 0 -13 4 -20 2 -20 -7
0 -10 -2 -10 -9 1 -14 22 18 44 36 25 7 -7 13 -15 13 -19z m1355 -35 c-28 -12
-37 -12 -30 0 3 6 16 10 28 9 21 0 21 -1 2 -9z m-105 -24 c0 -3 -4 -8 -10 -11
-5 -3 -10 -1 -10 4 0 6 5 11 10 11 6 0 10 -2 10 -4z m-820 -85 c-15 -29 -12
-39 13 -43 14 -2 22 -10 22 -23 0 -13 -8 -21 -22 -23 -30 -4 -29 -35 2 -87 14
-22 25 -44 25 -49 0 -10 -92 2 -104 15 -6 5 -18 9 -28 9 -10 0 -21 7 -24 15
-4 8 -12 15 -20 15 -16 0 -16 1 -18 71 -1 47 2 54 31 76 34 26 73 41 111 42
19 1 21 -2 12 -18z m206 -66 c-10 -8 -23 -12 -28 -9 -14 9 2 24 25 24 21 -1
21 -1 3 -15z m-136 -14 c0 -29 -15 -33 -18 -5 -1 13 3 24 8 24 6 0 10 -9 10
-19z m330 -56 c0 -8 -6 -15 -13 -15 -7 0 -23 -9 -35 -20 -29 -27 -30 -2 -2 28
24 25 50 29 50 7z m-818 -97 c-8 -8 -9 -4 -5 13 4 13 8 18 11 10 2 -7 -1 -18
-6 -23z"/>
<path d="M4486 9831 c-4 -7 -5 -15 -2 -18 9 -9 19 4 14 18 -4 11 -6 11 -12 0z"/>
<path d="M5095 9785 c-30 -14 -30 -14 28 -15 64 0 76 -16 20 -25 -21 -4 -51
-11 -68 -16 -16 -4 -65 -16 -107 -24 -43 -9 -78 -19 -78 -23 0 -4 -14 -13 -30
-21 -17 -7 -47 -28 -67 -47 -20 -19 -39 -34 -44 -34 -4 0 -12 -15 -17 -32 -6
-18 -13 -41 -17 -50 -9 -22 29 -18 75 8 24 14 34 16 37 7 6 -16 33 -17 33 -2
0 5 4 8 9 5 11 -7 25 21 29 62 3 20 107 81 151 88 l40 6 -6 -35 c-6 -42 18
-121 48 -153 20 -22 21 -22 2 -33 -11 -5 -29 -8 -40 -5 -13 4 -22 0 -26 -10
-5 -13 1 -15 36 -12 23 2 47 -1 54 -6 7 -5 14 -5 18 2 3 5 -1 10 -9 10 -9 0
-16 5 -16 10 0 6 11 10 24 10 20 0 23 -4 18 -27 -4 -24 -3 -26 10 -16 8 7 50
15 93 19 42 3 87 9 99 13 25 9 37 8 54 -2 7 -5 12 -3 12 6 0 10 12 14 40 14
25 0 48 7 61 19 12 10 24 17 28 14 14 -11 11 61 -3 82 -9 12 -16 39 -16 60 0
27 -6 40 -19 48 -11 5 -25 16 -33 23 -18 17 -58 34 -148 64 -92 31 -230 40
-275 18z m60 -165 c0 -8 -10 -16 -22 -18 -22 -3 -32 16 -16 32 12 11 38 2 38
-14z m175 5 c0 -8 -9 -15 -20 -15 -22 0 -27 15 -7 23 21 9 27 7 27 -8z m50
-55 c0 -5 -7 -10 -15 -10 -8 0 -15 5 -15 10 0 6 7 10 15 10 8 0 15 -4 15 -10z
m-515 -28 c-2 -3 -12 -1 -22 2 -15 6 -15 9 -3 16 13 8 35 -8 25 -18z m621 2
c-3 -9 -6 -20 -6 -25 0 -5 -9 -9 -20 -9 -21 0 -27 15 -10 25 6 4 8 11 5 16 -4
5 4 9 15 9 16 0 20 -4 16 -16z m-139 -24 c3 -24 -12 -27 -21 -4 -7 17 2 39 12
29 3 -3 7 -14 9 -25z"/>
<path d="M5018 9763 c7 -3 16 -2 19 1 4 3 -2 6 -13 5 -11 0 -14 -3 -6 -6z"/>
<path d="M4879 9737 c-37 -12 -82 -33 -101 -46 -39 -27 -134 -154 -119 -159
16 -5 107 71 120 101 16 35 88 84 151 103 28 8 50 17 50 19 0 10 -38 3 -101
-18z"/>
<path d="M6415 9750 c-3 -5 -1 -10 4 -10 6 0 11 5 11 10 0 6 -2 10 -4 10 -3 0
-8 -4 -11 -10z"/>
<path d="M4870 9490 c-9 -6 -10 -10 -3 -10 6 0 15 5 18 10 8 12 4 12 -15 0z"/>
<path d="M4900 9476 c0 -2 9 -6 20 -9 11 -3 20 -1 20 4 0 5 -9 9 -20 9 -11 0
-20 -2 -20 -4z"/>
<path d="M6446 9423 c-6 -14 -5 -15 5 -6 7 7 10 15 7 18 -3 3 -9 -2 -12 -12z"/>
<path d="M7166 9363 c-11 -11 -6 -23 9 -23 8 0 15 4 15 9 0 13 -16 22 -24 14z"/>
<path d="M6471 9344 c0 -11 3 -14 6 -6 3 7 2 16 -1 19 -3 4 -6 -2 -5 -13z"/>
<path d="M6945 9310 c3 -5 11 -10 16 -10 6 0 7 5 4 10 -3 6 -11 10 -16 10 -6
0 -7 -4 -4 -10z"/>
<path d="M7030 9170 c0 -5 5 -10 10 -10 6 0 10 5 10 10 0 6 -4 10 -10 10 -5 0
-10 -4 -10 -10z"/>
<path d="M7070 9170 c0 -7 24 -20 36 -20 13 0 1 19 -16 23 -11 3 -20 2 -20 -3z"/>
<path d="M9601 9132 c-17 -31 -13 -40 5 -14 9 13 14 26 11 29 -3 2 -10 -4 -16
-15z"/>
<path d="M9560 9129 c0 -5 5 -7 10 -4 6 3 10 8 10 11 0 2 -4 4 -10 4 -5 0 -10
-5 -10 -11z"/>
<path d="M9554 9036 c-3 -14 -1 -33 5 -43 10 -16 11 -14 9 12 -1 17 1 36 5 43
5 6 4 12 -2 12 -6 0 -13 -11 -17 -24z"/>
<path d="M9105 9004 c-8 -8 -15 -19 -15 -24 0 -5 -3 -17 -7 -27 -3 -10 -3 -15
2 -11 11 10 64 -30 77 -58 6 -13 17 -24 23 -24 7 0 12 -8 11 -17 0 -10 5 -17
12 -15 6 1 12 -5 12 -13 0 -8 3 -15 8 -15 4 0 7 30 6 66 l-1 65 -56 45 c-51
39 -58 42 -72 28z"/>
<path d="M8590 8959 c0 -5 5 -7 10 -4 6 3 10 8 10 11 0 2 -4 4 -10 4 -5 0 -10
-5 -10 -11z"/>
<path d="M6315 8730 c3 -5 8 -10 11 -10 2 0 4 5 4 10 0 6 -5 10 -11 10 -5 0
-7 -4 -4 -10z"/>
<path d="M9395 8710 c-3 -5 1 -10 10 -10 9 0 13 5 10 10 -3 6 -8 10 -10 10 -2
0 -7 -4 -10 -10z"/>
<path d="M6367 8703 c-4 -3 -7 -11 -7 -17 0 -6 5 -5 12 2 6 6 9 14 7 17 -3 3
-9 2 -12 -2z"/>
<path d="M6390 8695 c0 -5 5 -17 10 -25 5 -8 10 -10 10 -5 0 6 -5 17 -10 25
-5 8 -10 11 -10 5z"/>
<path d="M6425 8661 c3 -5 1 -12 -5 -16 -13 -8 11 -45 30 -45 12 1 11 4 -3 15
-13 9 -17 20 -12 34 4 13 2 21 -5 21 -6 0 -9 -4 -5 -9z"/>
<path d="M9338 8663 c-10 -2 -18 -11 -18 -18 0 -8 -12 -21 -27 -29 -16 -8 -22
-15 -15 -16 6 0 12 -7 12 -16 0 -8 -4 -13 -8 -10 -9 5 -47 -52 -39 -60 13 -14
92 51 92 76 0 8 6 14 13 13 8 -2 12 9 12 32 0 19 -1 34 -2 34 -2 -1 -11 -3
-20 -6z"/>
<path d="M9370 8650 c0 -5 5 -10 10 -10 6 0 10 5 10 10 0 6 -4 10 -10 10 -5 0
-10 -4 -10 -10z"/>
<path d="M9502 8581 c-8 -5 -12 -16 -10 -25 2 -12 6 -10 15 9 6 14 10 25 10
25 -1 0 -8 -4 -15 -9z"/>
<path d="M9460 8525 c0 -8 2 -15 4 -15 2 0 6 7 10 15 3 8 1 15 -4 15 -6 0 -10
-7 -10 -15z"/>
<path d="M6565 8520 c-4 -6 -11 -8 -16 -5 -12 8 -12 -8 0 -20 5 -6 11 -17 14
-25 2 -8 3 -3 1 11 -1 14 2 31 9 38 6 6 8 11 5 11 -4 0 -10 -5 -13 -10z"/>
<path d="M8982 8493 c-37 -24 -42 -32 -42 -65 0 -30 4 -38 18 -38 23 0 43 22
70 76 31 61 18 68 -46 27z"/>
<path d="M5952 8494 c-16 -17 -32 -18 -32 -2 0 6 -8 4 -19 -6 -11 -10 -25 -15
-30 -11 -6 3 -11 -2 -11 -12 0 -12 -8 -19 -21 -20 -22 -2 -59 -34 -59 -52 0
-6 -12 -22 -27 -36 -17 -16 -21 -23 -10 -19 19 7 23 -6 5 -24 -17 -17 -3 -26
44 -27 36 -1 42 -4 45 -25 6 -42 10 -47 55 -58 48 -12 187 -7 201 7 5 5 16 7
25 4 13 -5 14 1 9 35 -4 37 -3 42 15 42 14 0 18 -5 14 -15 -3 -8 -1 -15 4 -15
6 0 10 -5 10 -11 0 -5 -4 -7 -10 -4 -5 3 -10 1 -10 -5 0 -7 9 -14 20 -17 11
-3 17 -10 13 -16 -4 -7 0 -8 11 -4 10 4 23 7 30 7 6 0 17 14 23 30 12 31 33
41 33 15 0 -18 5 -18 31 -5 14 8 30 5 66 -11 31 -14 48 -18 51 -10 2 6 8 11
13 11 6 0 7 -4 4 -10 -10 -17 0 -12 55 25 29 19 56 32 61 29 5 -3 9 18 9 46 0
34 -4 49 -11 45 -6 -4 -8 -14 -4 -23 4 -12 1 -12 -16 4 -21 17 -22 18 -16 1 6
-16 2 -17 -24 -13 -16 2 -37 10 -45 16 -11 10 -14 9 -14 -6 0 -16 -3 -15 -18
7 -9 14 -23 24 -29 22 -7 -3 -13 0 -13 6 0 6 -7 11 -15 11 -8 0 -15 5 -15 10
0 6 -10 10 -23 10 -13 0 -32 6 -42 14 -11 8 -25 12 -31 9 -7 -3 -21 0 -30 5
-11 6 -27 6 -40 2 -19 -8 -21 -6 -17 13 4 18 3 19 -6 7 -10 -13 -11 -13 -11 0
0 9 -3 11 -8 5 -4 -5 -29 -11 -55 -12 -43 -2 -47 0 -42 17 5 17 2 19 -26 15
-18 -2 -38 0 -44 4 -6 5 -15 3 -23 -5z m28 -14 c0 -5 -4 -10 -10 -10 -5 0 -10
5 -10 10 0 6 5 10 10 10 6 0 10 -4 10 -10z m270 -200 c-6 -4 -11 -9 -10 -11 1
-2 -2 -12 -5 -21 -9 -22 -45 -24 -45 -3 0 8 -4 15 -10 15 -20 0 -9 29 13 32
32 5 71 -3 57 -12z"/>
<path d="M6211 8274 c0 -11 3 -14 6 -6 3 7 2 16 -1 19 -3 4 -6 -2 -5 -13z"/>
<path d="M6945 8474 c-27 -20 -21 -52 16 -87 24 -23 33 -26 44 -17 17 14 18
113 1 107 -6 -3 -18 -1 -26 3 -9 5 -23 2 -35 -6z"/>
<path d="M5442 8441 c-17 -10 -6 -54 19 -77 11 -10 36 -18 62 -18 59 -1 63 28
8 72 -40 32 -65 39 -89 23z"/>
<path d="M6575 8420 c3 -5 8 -10 11 -10 2 0 4 5 4 10 0 6 -5 10 -11 10 -5 0
-7 -4 -4 -10z"/>
<path d="M9370 8420 c0 -5 5 -10 11 -10 5 0 7 5 4 10 -3 6 -8 10 -11 10 -2 0
-4 -4 -4 -10z"/>
<path d="M9330 8384 c0 -8 5 -12 10 -9 6 4 8 11 5 16 -9 14 -15 11 -15 -7z"/>
<path d="M9301 8354 c0 -11 3 -14 6 -6 3 7 2 16 -1 19 -3 4 -6 -2 -5 -13z"/>
<path d="M6110 7711 c0 -5 6 -11 13 -14 6 -2 2 -2 -10 0 -17 2 -23 -2 -23 -14
0 -14 -2 -15 -9 -4 -6 9 -11 10 -15 2 -10 -16 -26 -14 -26 4 0 8 -4 15 -10 15
-5 0 -10 -7 -10 -16 0 -9 -5 -12 -12 -8 -8 5 -9 2 -5 -10 4 -10 7 -22 7 -27 0
-4 7 -6 15 -3 8 4 15 1 15 -5 0 -6 5 -11 10 -11 6 0 10 10 10 22 l0 22 15 -21
c10 -15 21 -19 36 -16 14 4 25 0 31 -10 4 -9 15 -14 23 -11 8 4 18 -1 21 -10
8 -21 24 -21 24 0 0 13 3 13 24 -3 13 -11 36 -19 52 -18 35 1 65 -32 43 -46
-8 -5 -17 -3 -21 4 -6 9 -10 9 -17 -1 -4 -8 -17 -13 -27 -12 -11 1 -21 1 -24
0 -3 -1 -18 -4 -35 -5 -16 -2 -61 -8 -99 -14 -61 -10 -71 -10 -78 4 -10 17
-38 21 -38 5 0 -5 -7 -10 -15 -10 -8 0 -15 6 -15 13 0 9 -3 8 -9 -2 -7 -11
-11 -10 -19 4 -11 21 -5 53 16 78 12 14 13 20 3 30 -10 9 -16 7 -32 -12 -21
-26 -25 -71 -7 -89 18 -18 7 -22 -79 -28 -63 -4 -99 0 -182 20 -103 26 -201
34 -201 17 0 -4 25 -11 55 -14 57 -6 126 -26 136 -40 3 -4 37 -10 75 -14 50
-4 74 -11 88 -25 10 -11 24 -17 31 -14 7 2 16 -1 19 -9 6 -17 46 -15 46 2 0
13 46 12 83 -2 12 -5 17 -2 17 9 0 11 8 15 24 14 21 -2 23 -5 14 -23 l-11 -20
23 20 23 20 -7 -22 c-4 -12 -2 -24 4 -28 7 -5 5 -12 -7 -21 -16 -13 -15 -13
10 -4 33 12 51 5 43 -17 -4 -11 -1 -13 14 -8 11 4 20 2 20 -4 0 -6 5 -11 10
-11 13 0 9 52 -5 62 -6 5 -3 8 7 8 9 0 18 6 21 13 8 23 22 -4 22 -44 0 -23 4
-37 10 -34 5 3 18 8 28 11 9 4 17 13 17 20 0 19 14 18 31 -2 11 -14 14 -13 25
7 6 13 10 29 7 36 -4 9 0 11 11 7 9 -3 16 -11 16 -16 0 -6 12 -8 27 -5 15 3
37 1 49 -4 19 -7 25 -4 35 19 9 21 19 27 42 27 17 0 32 -6 35 -12 4 -15 32
-17 32 -3 0 6 8 10 18 10 16 -1 16 -1 0 -11 -10 -5 -18 -17 -18 -24 0 -16 12
-20 24 -7 4 4 11 7 14 7 4 1 22 9 40 19 18 9 44 16 56 14 13 -1 31 4 41 12 9
8 29 15 44 16 40 2 43 3 35 15 -4 8 1 9 17 4 13 -4 26 -12 27 -16 2 -5 10 -9
17 -9 7 0 15 -5 17 -11 3 -8 16 -6 43 5 53 22 75 44 75 74 0 35 -37 82 -62 79
-16 -1 -23 5 -28 23 -6 24 -6 24 -18 5 -6 -11 -12 -14 -12 -7 0 8 -5 10 -12 6
-7 -5 -22 -8 -33 -8 -11 0 -26 3 -33 8 -6 4 -12 3 -12 -1 0 -5 -12 -10 -27
-11 -22 -1 -24 0 -13 8 8 5 13 10 10 10 -38 6 -88 4 -84 -2 7 -11 0 -10 -32 7
-19 10 -30 11 -35 4 -4 -7 -9 -5 -12 5 -4 9 -12 16 -18 16 -8 0 -7 -6 2 -17
13 -16 12 -17 -2 -5 -18 14 -51 24 -86 26 -13 0 -23 4 -23 9 0 4 -5 7 -11 7
-5 0 -7 -4 -4 -10 3 -6 -1 -7 -9 -4 -9 3 -16 11 -16 17 0 5 -9 2 -20 -8 -18
-17 -20 -17 -14 -2 3 10 1 17 -5 17 -6 0 -11 -7 -11 -15 0 -8 -4 -15 -10 -15
-5 0 -10 3 -10 8 0 4 -24 8 -52 10 -29 2 -58 8 -65 14 -9 8 -13 7 -13 -3 0
-10 -3 -10 -12 -1 -17 17 -26 15 -31 -5 -3 -13 -5 -11 -6 6 -1 18 -4 21 -14
13 -10 -8 -16 -6 -25 9 -12 19 -52 27 -52 10z m160 -111 c0 -5 -4 -10 -10 -10
-5 0 -10 5 -10 10 0 6 5 10 10 10 6 0 10 -4 10 -10z m485 -10 c3 -5 1 -10 -4
-10 -6 0 -11 5 -11 10 0 6 2 10 4 10 3 0 8 -4 11 -10z m-395 -20 c0 -5 -4 -10
-10 -10 -5 0 -10 5 -10 10 0 6 5 10 10 10 6 0 10 -4 10 -10z m55 -30 c-3 -5
-11 -10 -16 -10 -6 0 -7 5 -4 10 3 6 11 10 16 10 6 0 7 -4 4 -10z m-100 -110
c3 -5 1 -10 -4 -10 -6 0 -11 5 -11 10 0 6 2 10 4 10 3 0 8 -4 11 -10z"/>
<path d="M8726 7681 c-4 -7 -5 -15 -2 -18 9 -9 19 4 14 18 -4 11 -6 11 -12 0z"/>
<path d="M8715 7640 c-3 -5 1 -10 10 -10 9 0 13 5 10 10 -3 6 -8 10 -10 10 -2
0 -7 -4 -10 -10z"/>
<path d="M5230 7619 c-18 -4 -40 -15 -47 -25 -15 -21 -16 -24 -4 -43 7 -11 17
-12 50 -4 23 6 43 7 46 3 2 -4 16 -5 30 -2 14 2 25 0 25 -4 0 -5 20 -10 45
-11 27 -1 43 2 40 7 -4 6 -12 10 -19 10 -8 0 -37 16 -65 35 -28 20 -51 32 -51
28 0 -5 -4 -3 -8 3 -4 6 -20 8 -42 3z"/>
<path d="M5890 7619 c0 -5 5 -7 10 -4 6 3 10 8 10 11 0 2 -4 4 -10 4 -5 0 -10
-5 -10 -11z"/>
<path d="M5973 7617 c-3 -5 -1 -7 5 -3 6 3 13 2 17 -4 8 -12 35 -13 35 -1 0
13 -49 20 -57 8z"/>
<path d="M8722 7580 c0 -14 2 -19 5 -12 2 6 2 18 0 25 -3 6 -5 1 -5 -13z"/>
<path d="M8665 7420 c3 -5 8 -10 11 -10 2 0 4 5 4 10 0 6 -5 10 -11 10 -5 0
-7 -4 -4 -10z"/>
<path d="M6513 7383 c-7 -2 -13 -10 -13 -16 0 -7 -9 -18 -20 -25 -11 -7 -20
-18 -20 -25 1 -7 7 -4 15 7 7 10 18 15 24 12 6 -4 13 5 17 19 7 28 14 31 32
13 8 -8 12 -8 12 -1 0 9 -26 26 -33 22 -1 0 -8 -3 -14 -6z"/>
<path d="M6017 7363 c-4 -3 -7 -11 -7 -17 0 -6 5 -5 12 2 6 6 9 14 7 17 -3 3
-9 2 -12 -2z"/>
<path d="M6396 7357 c3 -10 9 -15 12 -12 3 3 0 11 -7 18 -10 9 -11 8 -5 -6z"/>
<path d="M6070 7334 c0 -8 5 -12 10 -9 6 4 8 11 5 16 -9 14 -15 11 -15 -7z"/>
<path d="M8570 7321 c0 -5 7 -11 15 -15 8 -3 15 -1 15 3 0 5 -7 11 -15 15 -8
3 -15 1 -15 -3z"/>
<path d="M6312 7269 c2 -7 10 -15 17 -17 8 -3 12 1 9 9 -2 7 -10 15 -17 17 -8
3 -12 -1 -9 -9z"/>
<path d="M6234 7249 c-3 -6 -19 -9 -35 -7 -20 3 -29 0 -29 -9 0 -12 -25 -18
-57 -14 -19 3 -16 -6 14 -33 28 -26 46 -26 36 -1 -3 8 0 15 6 15 6 0 11 -4 11
-10 0 -5 5 -10 11 -10 6 0 9 7 5 15 -8 21 11 19 23 -2 7 -12 10 -13 11 -5 0 8
10 22 22 31 12 10 18 23 14 29 -9 15 -23 15 -32 1z"/>
<path d="M6280 7252 c0 -5 9 -12 21 -15 13 -3 19 -1 16 6 -5 15 -37 22 -37 9z"/>
<path d="M6030 7205 c0 -8 5 -15 10 -15 6 0 10 7 10 15 0 8 -4 15 -10 15 -5 0
-10 -7 -10 -15z"/>
<path d="M6081 7204 c0 -11 3 -14 6 -6 3 7 2 16 -1 19 -3 4 -6 -2 -5 -13z"/>
<path d="M8575 7180 c3 -5 13 -10 21 -10 8 0 14 5 14 10 0 6 -9 10 -21 10 -11
0 -17 -4 -14 -10z"/>
<path d="M8505 7050 c-3 -5 -1 -10 4 -10 6 0 11 5 11 10 0 6 -2 10 -4 10 -3 0
-8 -4 -11 -10z"/>
<path d="M8521 7029 c-19 -16 -21 -22 -11 -34 10 -12 10 -15 0 -15 -8 0 -11
-2 -8 -5 9 -9 38 6 38 20 0 7 4 15 9 17 4 2 6 11 2 20 -5 15 -8 15 -30 -3z"/>
<path d="M8430 6979 c0 -5 5 -7 10 -4 6 3 10 8 10 11 0 2 -4 4 -10 4 -5 0 -10
-5 -10 -11z"/>
<path d="M8473 6978 c4 -10 2 -18 -3 -18 -6 0 -10 -7 -10 -16 0 -11 -6 -13
-19 -9 -11 3 -22 1 -26 -5 -3 -6 -12 -7 -18 -3 -7 3 -4 -3 6 -14 18 -21 18
-21 -2 -28 -12 -3 -21 -11 -21 -16 0 -5 -4 -9 -9 -9 -5 0 -7 10 -3 22 5 21 5
21 -20 2 -14 -10 -23 -23 -20 -28 3 -5 1 -6 -5 -3 -6 4 -19 -2 -29 -12 -17
-16 -20 -16 -30 -2 -10 13 -12 12 -18 -6 -5 -15 -12 -19 -28 -15 -14 3 -19 1
-14 -7 4 -7 -2 -15 -16 -20 -17 -6 -25 -5 -31 6 -7 11 -19 3 -55 -34 -25 -26
-49 -47 -54 -45 -4 1 -8 -4 -9 -10 0 -7 -5 -2 -11 12 -10 24 -10 24 -19 5 -8
-16 -8 -15 -4 7 6 30 -12 48 -26 27 -8 -12 -10 -12 -18 0 -7 11 -12 10 -22 -8
-17 -26 -34 -27 -49 -3 -9 16 -11 15 -29 -5 -25 -30 -38 -29 -38 3 0 14 -6 31
-12 37 -8 8 -11 7 -11 -4 0 -8 5 -20 12 -27 9 -9 9 -12 0 -12 -7 0 -12 -12
-12 -26 0 -15 -4 -23 -11 -19 -6 4 -8 13 -5 21 3 7 1 16 -4 19 -6 4 -10 -3
-10 -14 0 -11 -5 -23 -11 -26 -6 -4 -8 -14 -4 -24 5 -13 4 -14 -7 -3 -10 10
-10 17 0 32 17 28 15 34 -5 15 -16 -16 -17 -16 -25 4 -4 11 -10 21 -13 21 -4
0 -4 -4 -1 -9 9 -13 -4 -42 -18 -40 -37 5 -45 -1 -42 -33 2 -18 2 -25 -1 -16
-2 9 -10 15 -17 12 -8 -3 -20 2 -29 10 -11 12 -16 12 -20 3 -5 -14 18 -39 27
-30 3 4 6 1 6 -5 0 -18 -22 -26 -31 -11 -7 11 -9 11 -9 -3 0 -9 6 -18 12 -20
9 -3 8 -9 -5 -22 -14 -14 -17 -15 -17 -3 0 13 -5 13 -30 4 -16 -6 -30 -17 -30
-24 0 -17 5 -16 25 3 19 19 33 11 16 -10 -14 -17 -51 -28 -51 -15 0 5 -7 9
-15 9 -8 0 -15 5 -15 10 0 6 -7 10 -17 10 -15 0 -15 -1 0 -18 22 -24 21 -29
-4 -35 -12 -3 -22 0 -26 9 -3 8 -10 14 -15 14 -6 0 -7 -7 -4 -16 3 -8 2 -12
-4 -9 -6 4 -7 -6 -4 -25 4 -18 2 -30 -4 -30 -6 0 -17 -3 -26 -6 -11 -4 -16 -1
-16 11 0 14 -3 15 -15 5 -8 -7 -15 -8 -15 -3 0 14 23 40 40 45 8 3 -4 7 -27 9
-37 4 -43 2 -43 -14 0 -14 -5 -18 -19 -14 -11 3 -22 -1 -25 -9 -3 -7 -14 -11
-26 -9 -15 3 -20 -1 -20 -17 0 -14 -5 -18 -15 -15 -8 4 -17 2 -20 -3 -3 -4 -1
-10 5 -12 6 -2 6 -8 0 -18 -8 -13 -10 -13 -10 2 0 23 -32 39 -51 27 -21 -13
-33 -11 -20 5 8 10 9 16 1 21 -5 3 -10 1 -10 -4 0 -6 -11 -11 -25 -11 -14 0
-28 -7 -31 -15 -8 -19 -24 -20 -24 -1 0 8 -5 18 -12 22 -8 5 -9 2 -5 -10 5
-13 1 -19 -14 -23 -14 -4 -19 -12 -16 -23 2 -10 0 -24 -5 -31 -8 -11 -9 -10
-4 4 3 9 1 17 -4 17 -6 0 -10 11 -10 25 0 30 -20 32 -45 5 -10 -11 -20 -18
-23 -15 -3 3 -11 0 -19 -6 -10 -9 -13 -7 -13 9 0 22 -19 21 -49 -2 -20 -15
-94 -14 -106 1 -8 11 -15 11 -37 1 -16 -7 -28 -16 -28 -20 0 -5 -7 -8 -15 -8
-8 0 -15 -5 -15 -11 0 -7 -10 -9 -24 -5 -19 5 -26 1 -31 -14 -8 -25 -32 -26
-37 -2 -3 12 -7 8 -18 -15 -8 -18 -20 -33 -27 -33 -6 0 -13 -3 -16 -7 -2 -5
-2 -2 0 6 2 8 -2 18 -9 23 -21 13 -30 9 -23 -11 4 -14 0 -23 -15 -31 -31 -16
-54 -6 -41 19 8 14 7 22 -6 32 -15 12 -16 11 -11 -8 4 -13 2 -26 -3 -29 -5 -3
-9 2 -9 10 0 9 -5 16 -11 16 -6 0 -8 8 -4 19 3 11 1 22 -5 26 -5 3 -10 -2 -10
-14 0 -27 -10 -51 -22 -51 -5 0 -7 9 -3 19 3 11 0 23 -6 27 -8 5 -10 2 -6 -9
6 -16 -11 -27 -44 -27 -12 0 -21 -10 -27 -32 -6 -24 -14 -33 -29 -34 -12 -1
-30 -5 -40 -9 -39 -16 -100 -12 -72 6 7 4 10 11 6 15 -4 4 -13 0 -20 -8 -16
-21 -57 -33 -57 -18 0 7 -8 9 -20 5 -13 -4 -20 -2 -21 7 0 7 -4 4 -8 -7 -5
-12 -17 -20 -32 -20 -14 0 -23 -5 -21 -12 1 -7 -2 -13 -8 -13 -5 0 -10 5 -10
10 0 18 -36 11 -65 -12 -20 -15 -30 -18 -33 -10 -6 19 -20 14 -24 -8 -2 -14
-7 -17 -17 -11 -12 8 -12 12 -2 25 17 20 4 20 -33 1 -15 -8 -38 -12 -50 -9
-12 3 -33 1 -46 -4 -25 -10 -25 -10 10 -19 24 -7 34 -15 32 -26 -2 -11 2 -15
11 -11 8 3 21 -1 28 -9 8 -7 19 -12 24 -10 6 1 29 -15 53 -36 32 -29 48 -37
67 -33 24 4 30 -3 26 -35 -1 -7 3 -13 9 -13 5 0 10 7 10 16 0 11 5 14 16 10 9
-3 18 -6 20 -6 2 0 4 -6 4 -14 0 -18 12 -26 48 -32 15 -3 29 -9 30 -15 7 -18
22 -9 23 14 0 14 3 17 6 7 7 -16 35 -46 40 -42 13 10 32 -1 27 -15 -4 -13 1
-10 17 7 l22 25 -6 -23 c-4 -19 -3 -21 9 -11 8 6 15 9 15 5 1 -3 2 -10 3 -15
3 -23 16 -21 16 2 0 21 4 25 17 20 12 -5 15 -2 10 10 -7 18 8 24 18 7 5 -8 11
-8 20 0 10 8 17 4 31 -19 13 -21 20 -27 26 -18 5 8 8 7 8 -5 0 -10 5 -18 10
-18 6 0 10 5 10 10 0 13 27 13 35 0 4 -6 1 -18 -6 -26 -11 -13 -7 -15 29 -11
32 3 42 1 42 -11 0 -9 6 -12 16 -8 9 3 17 6 20 6 2 0 1 7 -2 15 -4 8 -2 15 3
15 11 0 43 -37 43 -50 0 -6 5 -10 10 -10 6 0 10 -7 10 -16 0 -8 5 -12 10 -9 6
4 8 12 4 18 -3 7 1 5 8 -5 8 -9 25 -18 38 -20 17 -2 24 -8 22 -20 -2 -10 2
-18 8 -18 5 0 10 9 10 19 0 27 30 35 46 14 13 -17 13 -17 14 2 0 15 3 16 12 7
9 -9 9 -15 0 -24 -16 -16 -15 -33 1 -19 16 13 28 5 20 -15 -3 -8 0 -14 6 -14
6 0 11 5 11 10 0 6 5 10 11 10 6 0 8 -9 4 -20 -3 -11 -2 -20 2 -20 16 0 31 22
26 39 -3 10 -2 12 4 5 4 -6 18 -15 31 -18 20 -7 21 -10 10 -24 -11 -14 -10
-15 5 -9 10 4 21 7 23 7 2 0 4 7 4 15 0 8 17 19 40 26 32 10 40 17 38 32 -4
25 19 34 25 10 3 -12 5 -9 6 9 1 25 3 27 27 18 22 -9 27 -7 31 9 4 16 8 17 18
8 9 -9 10 -14 1 -19 -8 -6 -8 -8 1 -8 6 0 20 8 29 18 17 16 18 16 11 -2 -5
-12 -3 -22 5 -27 10 -7 10 -11 0 -21 -9 -9 -12 -9 -12 0 0 7 -9 12 -20 12 -11
0 -20 -4 -20 -10 0 -5 -7 -10 -16 -10 -9 0 -14 -6 -11 -12 2 -7 11 -12 21 -10
9 2 16 -2 16 -9 0 -8 3 -9 13 0 8 6 16 8 20 5 3 -3 8 4 12 15 3 12 10 19 15
16 4 -3 10 2 14 10 3 8 2 15 -3 15 -4 0 -8 14 -9 31 0 17 2 28 5 25 3 -3 12
-1 20 5 8 7 13 8 13 1 0 -7 9 -6 25 1 14 7 25 18 25 25 0 6 4 12 9 12 16 0 40
57 29 68 -7 7 0 16 21 27 25 12 31 21 26 36 -4 11 -2 19 4 19 6 0 11 -11 11
-25 0 -14 5 -25 10 -25 6 0 10 8 10 19 0 22 23 44 35 33 4 -4 3 3 -4 15 -6 12
-16 25 -21 28 -6 3 -10 12 -10 18 0 7 9 1 19 -12 12 -16 21 -20 25 -12 4 6 11
11 17 11 14 0 11 -28 -3 -33 -8 -3 -6 -6 5 -6 9 -1 17 -8 17 -16 0 -13 4 -14
21 -5 17 10 24 8 41 -12 l20 -23 -6 23 c-5 13 -3 22 3 22 6 0 11 6 11 14 0 8
7 22 16 31 9 9 13 19 9 23 -4 4 -10 1 -12 -6 -7 -18 -33 -42 -45 -42 -7 0 -1
11 12 25 13 14 24 33 25 42 5 41 16 52 46 46 25 -5 29 -2 29 16 0 15 6 21 23
21 28 0 41 10 51 35 4 11 10 15 14 10 10 -15 35 -12 49 5 11 13 12 12 13 -7 0
-12 -4 -23 -10 -25 -6 -2 -6 -14 -1 -33 8 -25 9 -26 10 -7 1 12 7 22 15 22 8
0 17 12 19 28 l4 27 2 -27 c0 -16 6 -28 11 -28 6 0 10 12 11 28 l1 27 8 -25 8
-25 1 24 c1 13 4 21 8 18 3 -4 15 1 26 10 15 13 21 15 24 5 7 -18 23 -4 23 19
0 16 4 19 20 14 21 -7 95 30 119 59 7 8 19 12 27 9 8 -3 14 -2 13 3 -1 5 -1
16 0 24 1 13 2 13 11 0 9 -13 10 -13 10 0 0 13 1 13 10 0 8 -13 10 -12 10 3 0
9 5 17 10 17 6 0 15 12 20 26 6 14 14 22 20 19 5 -3 10 -1 10 4 0 15 27 14 33
-1 3 -8 8 -6 13 7 10 25 29 45 43 45 6 0 11 6 11 14 0 14 27 31 43 27 5 -1 5
9 2 21 -4 13 -4 20 -1 17 10 -9 88 69 81 80 -3 5 -1 12 5 16 5 3 10 1 10 -4 0
-6 4 -11 10 -11 5 0 7 7 4 15 -4 9 0 15 10 15 9 0 16 8 16 18 0 9 5 24 10 32
8 12 12 12 18 2 13 -20 35 12 30 42 -4 17 -1 23 9 19 7 -3 13 2 13 12 0 9 4
14 9 11 12 -8 21 32 12 58 -15 43 -8 61 22 59 17 -1 27 3 27 12 0 8 -6 12 -14
9 -8 -3 -22 5 -31 18 -11 15 -15 17 -12 6z m-62 -168 c10 0 11 -2 0 -12 -10
-11 -15 -9 -27 6 -8 11 -14 25 -14 30 0 6 7 3 14 -6 7 -10 19 -18 27 -18z
m-46 -10 c3 -5 1 -10 -4 -10 -6 0 -11 5 -11 10 0 6 2 10 4 10 3 0 8 -4 11 -10z
m-130 -10 c3 -5 1 -10 -4 -10 -6 0 -11 5 -11 10 0 6 2 10 4 10 3 0 8 -4 11
-10z m85 0 c0 -5 -5 -10 -11 -10 -5 0 -7 5 -4 10 3 6 8 10 11 10 2 0 4 -4 4
-10z m-440 -67 c0 -10 -4 -24 -9 -31 -7 -11 -9 -11 -14 2 -4 9 -2 16 4 16 6 0
9 7 5 15 -3 8 -1 15 4 15 6 0 10 -8 10 -17z m67 -5 c-3 -8 -6 -5 -6 6 -1 11 2
17 5 13 3 -3 4 -12 1 -19z m398 12 c-3 -5 -11 -10 -16 -10 -6 0 -7 5 -4 10 3
6 11 10 16 10 6 0 7 -4 4 -10z m-415 -29 c0 -5 -9 -7 -20 -4 -11 3 -20 12 -20
20 0 11 4 11 20 3 11 -6 20 -15 20 -19z m-25 -29 c-3 -3 -11 0 -18 7 -9 10 -8
11 6 5 10 -3 15 -9 12 -12z m-81 -10 c3 -5 -1 -9 -9 -9 -8 0 -12 4 -9 9 3 4 7
8 9 8 2 0 6 -4 9 -8z m46 4 c0 -2 -7 -7 -16 -10 -8 -3 -12 -2 -9 4 6 10 25 14
25 6z m-171 -43 c0 -34 -1 -36 -11 -16 -6 12 -8 29 -5 37 11 27 17 18 16 -21z
m31 27 c0 -5 -5 -10 -11 -10 -5 0 -7 5 -4 10 3 6 8 10 11 10 2 0 4 -4 4 -10z
m160 -27 c-11 -17 -11 -17 -6 0 3 10 6 24 7 30 0 9 2 9 5 0 3 -7 0 -20 -6 -30z
m-120 16 c0 -6 7 -9 15 -5 8 3 15 2 15 -3 0 -5 -7 -14 -15 -21 -12 -10 -15
-10 -15 4 0 9 -4 16 -10 16 -5 0 -10 -9 -10 -19 0 -10 -7 -21 -15 -25 -8 -3
-15 -1 -15 4 0 6 5 10 12 10 9 0 9 3 1 11 -9 9 -8 15 0 25 15 16 37 18 37 3z
m-50 -88 c0 -6 -4 -13 -10 -16 -5 -3 -10 1 -10 9 0 9 5 16 10 16 6 0 10 -4 10
-9z m-263 -83 c-3 -8 -6 -5 -6 6 -1 11 2 17 5 13 3 -3 4 -12 1 -19z m-170 -52
c-8 -8 -17 -13 -20 -10 -3 3 2 13 11 23 10 9 18 13 20 9 2 -4 -3 -14 -11 -22z
m-57 -2 c0 -8 -5 -12 -10 -9 -6 4 -8 11 -5 16 9 14 15 11 15 -7z m-420 -33 c0
-6 -4 -13 -10 -16 -5 -3 -10 1 -10 9 0 9 5 16 10 16 6 0 10 -4 10 -9z m100
-18 c0 -12 -3 -13 -14 -4 -11 9 -15 9 -19 -1 -4 -9 -6 -7 -6 4 -1 16 18 29 32
21 4 -2 7 -11 7 -20z m-240 10 c0 -5 -5 -15 -10 -23 -8 -12 -10 -12 -11 5 0
19 -1 19 -8 1 -6 -17 -8 -17 -14 -3 -6 15 5 25 31 26 6 1 12 -2 12 -6z m25
-12 c3 -5 1 -12 -5 -16 -5 -3 -10 1 -10 9 0 18 6 21 15 7z m146 -24 c-10 -9
-11 -8 -5 6 3 10 9 15 12 12 3 -3 0 -11 -7 -18z m-304 -19 c-3 -8 -6 -5 -6 6
-1 11 2 17 5 13 3 -3 4 -12 1 -19z m1170 -60 c-3 -8 -6 -5 -6 6 -1 11 2 17 5
13 3 -3 4 -12 1 -19z m41 -2 c-7 -8 -15 -12 -17 -11 -5 6 10 25 20 25 5 0 4
-6 -3 -14z m-1441 -38 c-3 -8 -6 -5 -6 6 -1 11 2 17 5 13 3 -3 4 -12 1 -19z
m1263 -9 c0 -6 -4 -7 -10 -4 -5 3 -10 11 -10 16 0 6 5 7 10 4 6 -3 10 -11 10
-16z m-115 -19 c3 -5 1 -10 -4 -10 -6 0 -11 5 -11 10 0 6 2 10 4 10 3 0 8 -4
11 -10z m-55 -110 c0 -5 -4 -10 -10 -10 -5 0 -10 5 -10 10 0 6 5 10 10 10 6 0
10 -4 10 -10z m-38 -32 c-7 -7 -12 -8 -12 -2 0 14 12 26 19 19 2 -3 -1 -11 -7
-17z m-1322 -109 c0 -6 -4 -7 -10 -4 -5 3 -10 11 -10 16 0 6 5 7 10 4 6 -3 10
-11 10 -16z m990 -13 c0 -3 -4 -8 -10 -11 -5 -3 -10 -1 -10 4 0 6 5 11 10 11
6 0 10 -2 10 -4z m114 -50 c-3 -9 -12 -16 -20 -16 -8 0 -14 -7 -14 -15 0 -8
-4 -15 -10 -15 -5 0 -10 9 -10 20 0 11 7 20 15 20 8 0 15 7 15 15 0 11 -5 12
-26 5 -34 -13 -39 -13 -24 4 15 19 63 25 73 9 4 -6 4 -18 1 -27z m-187 -13 c0
-8 -6 -12 -14 -8 -8 3 -24 0 -36 -7 -24 -13 -47 -19 -47 -11 0 14 31 32 46 26
11 -4 15 -2 11 4 -4 6 3 11 17 11 13 0 23 -7 23 -15z m-123 -28 c3 -8 2 -15
-3 -15 -5 0 -14 7 -21 15 -10 12 -10 15 3 15 8 0 17 -7 21 -15z m126 -15 c0
-5 -5 -10 -11 -10 -5 0 -7 5 -4 10 3 6 8 10 11 10 2 0 4 -4 4 -10z m50 6 c0
-3 -4 -8 -10 -11 -5 -3 -10 -1 -10 4 0 6 5 11 10 11 6 0 10 -2 10 -4z m-125
-17 c11 -17 -1 -21 -15 -4 -8 9 -8 15 -2 15 6 0 14 -5 17 -11z m-60 -29 c3 -5
1 -10 -4 -10 -6 0 -11 5 -11 10 0 6 2 10 4 10 3 0 8 -4 11 -10z m-45 -21 c0
-5 -4 -9 -10 -9 -5 0 -10 7 -10 16 0 8 5 12 10 9 6 -3 10 -10 10 -16z m230
-29 c0 -5 -4 -10 -10 -10 -5 0 -10 5 -10 10 0 6 5 10 10 10 6 0 10 -4 10 -10z"/>
<path d="M8390 6960 c0 -5 5 -10 10 -10 6 0 10 5 10 10 0 6 -4 10 -10 10 -5 0
-10 -4 -10 -10z"/>
<path d="M7957 6879 c4 -13 8 -18 11 -10 2 7 -1 18 -6 23 -8 8 -9 4 -5 -13z"/>
<path d="M8241 6884 c0 -11 3 -14 6 -6 3 7 2 16 -1 19 -3 4 -6 -2 -5 -13z"/>
<path d="M8270 6870 c0 -5 5 -10 10 -10 6 0 10 5 10 10 0 6 -4 10 -10 10 -5 0
-10 -4 -10 -10z"/>
<path d="M8170 6850 c-8 -5 -11 -12 -7 -16 4 -4 15 0 24 9 18 18 8 23 -17 7z"/>
<path d="M8120 6840 c0 -5 7 -10 16 -10 8 0 12 5 9 10 -3 6 -10 10 -16 10 -5
0 -9 -4 -9 -10z"/>
<path d="M7950 6820 c-9 -6 -10 -10 -3 -10 6 0 15 5 18 10 8 12 4 12 -15 0z"/>
<path d="M7630 6789 c0 -5 5 -7 10 -4 6 3 10 8 10 11 0 2 -4 4 -10 4 -5 0 -10
-5 -10 -11z"/>
<path d="M7960 6790 c0 -5 5 -10 10 -10 6 0 10 5 10 10 0 6 -4 10 -10 10 -5 0
-10 -4 -10 -10z"/>
<path d="M7681 6754 c0 -11 3 -14 6 -6 3 7 2 16 -1 19 -3 4 -6 -2 -5 -13z"/>
<path d="M7911 6754 c0 -11 3 -14 6 -6 3 7 2 16 -1 19 -3 4 -6 -2 -5 -13z"/>
<path d="M8025 6761 c-3 -6 3 -15 14 -21 24 -12 42 7 20 21 -18 11 -26 11 -34
0z"/>
<path d="M7740 6745 c-11 -13 -10 -14 4 -9 9 3 16 10 16 15 0 13 -6 11 -20 -6z"/>
<path d="M7648 6735 c-4 -17 0 -21 23 -21 16 -1 26 2 23 7 -3 5 -11 9 -19 9
-7 0 -15 6 -17 12 -3 7 -7 4 -10 -7z"/>
<path d="M7540 6640 c0 -5 5 -10 11 -10 5 0 7 5 4 10 -3 6 -8 10 -11 10 -2 0
-4 -4 -4 -10z"/>
<path d="M7360 6530 c0 -5 5 -10 10 -10 6 0 10 5 10 10 0 6 -4 10 -10 10 -5 0
-10 -4 -10 -10z"/>
<path d="M7010 6510 c0 -5 5 -10 10 -10 6 0 10 5 10 10 0 6 -4 10 -10 10 -5 0
-10 -4 -10 -10z"/>
<path d="M7110 6466 c0 -2 7 -9 15 -16 9 -7 15 -8 15 -2 0 5 -7 12 -15 16 -8
3 -15 4 -15 2z"/>
<path d="M6944 6449 c-3 -6 -1 -16 5 -22 8 -8 11 -5 11 11 0 24 -5 28 -16 11z"/>
<path d="M6250 6379 c0 -5 5 -7 10 -4 6 3 10 8 10 11 0 2 -4 4 -10 4 -5 0 -10
-5 -10 -11z"/>
<path d="M8755 6360 c-3 -5 -1 -10 4 -10 6 0 11 5 11 10 0 6 -2 10 -4 10 -3 0
-8 -4 -11 -10z"/>
<path d="M6430 6344 c0 -8 5 -12 10 -9 6 4 8 11 5 16 -9 14 -15 11 -15 -7z"/>
<path d="M8760 6315 c6 -7 8 -20 4 -29 -3 -9 -1 -16 5 -16 6 0 11 13 11 28 0
19 -5 29 -15 29 -10 0 -12 -4 -5 -12z"/>
<path d="M8907 6310 c-9 -6 -21 -8 -27 -5 -5 3 -21 -2 -35 -11 -23 -15 -25
-15 -25 1 0 30 -23 10 -26 -24 -3 -19 0 -30 6 -26 6 3 7 -1 4 -9 -3 -9 -13
-16 -21 -16 -9 0 -13 -6 -9 -15 3 -8 0 -15 -7 -15 -9 0 -9 -2 0 -8 14 -9 6
-82 -9 -82 -5 0 -6 -4 -3 -10 3 -5 -1 -10 -9 -10 -9 0 -16 -5 -16 -11 0 -6
-23 -33 -51 -60 -29 -27 -49 -52 -46 -55 5 -5 77 45 97 66 3 3 28 23 55 45 74
57 225 212 225 230 0 8 -6 15 -14 15 -7 0 -26 2 -42 5 -16 3 -37 0 -47 -5z"/>
<path d="M6085 6271 c-3 -5 -1 -12 5 -16 5 -3 10 1 10 9 0 18 -6 21 -15 7z"/>
<path d="M5745 6190 c-3 -5 -1 -10 4 -10 6 0 11 5 11 10 0 6 -2 10 -4 10 -3 0
-8 -4 -11 -10z"/>
<path d="M7566 6164 c-15 -14 -26 -28 -23 -31 3 -3 18 7 33 21 36 33 28 42
-10 10z"/>
<path d="M7615 6170 c3 -5 1 -10 -6 -10 -8 0 -9 -4 0 -13 8 -10 7 -17 -1 -25
-9 -9 -8 -12 5 -12 13 0 17 9 17 35 0 19 -5 35 -11 35 -5 0 -7 -4 -4 -10z"/>
<path d="M7671 6154 c0 -11 3 -14 6 -6 3 7 2 16 -1 19 -3 4 -6 -2 -5 -13z"/>
<path d="M7796 6161 c-4 -7 -5 -15 -2 -18 9 -9 19 4 14 18 -4 11 -6 11 -12 0z"/>
<path d="M7470 6118 c0 -17 18 -44 24 -37 8 7 -5 49 -15 49 -5 0 -9 -6 -9 -12z"/>
<path d="M7285 5990 c-3 -4 -2 -15 1 -24 5 -13 9 -14 20 -5 8 6 14 15 14 19 0
12 -29 20 -35 10z"/>
<path d="M7340 5950 c0 -5 7 -10 16 -10 8 0 12 5 9 10 -3 6 -10 10 -16 10 -5
0 -9 -4 -9 -10z"/>
<path d="M7217 5943 c-4 -3 -7 -12 -7 -20 0 -11 4 -11 20 -3 11 6 18 15 15 21
-7 11 -19 12 -28 2z"/>
<path d="M8582 5928 c-18 -18 -14 -27 8 -21 21 6 26 18 12 27 -5 3 -14 0 -20
-6z"/>
<path d="M7297 5923 c-10 -9 -9 -23 2 -23 5 0 11 7 15 15 5 15 -5 20 -17 8z"/>
<path d="M6190 5902 c0 -18 12 -42 21 -42 14 0 10 26 -6 40 -9 8 -15 8 -15 2z"/>
<path d="M8534 5885 c-17 -13 -17 -14 -2 -15 9 0 20 5 23 11 11 17 0 20 -21 4z"/>
<path d="M6166 5873 c-9 -10 -7 -43 3 -43 11 0 21 39 11 45 -4 2 -10 2 -14 -2z"/>
<path d="M7181 5867 c2 -1 11 -8 20 -15 14 -10 18 -10 23 3 4 11 -1 15 -21 15
-14 0 -24 -1 -22 -3z"/>
<path d="M7247 5863 c-4 -3 -7 -11 -7 -17 0 -6 5 -5 12 2 6 6 9 14 7 17 -3 3
-9 2 -12 -2z"/>
<path d="M8458 5832 c-53 -39 -47 -49 7 -12 25 17 45 33 45 35 0 10 -17 3 -52
-23z"/>
<path d="M6110 5835 c0 -8 5 -15 10 -15 6 0 10 7 10 15 0 8 -4 15 -10 15 -5 0
-10 -7 -10 -15z"/>
<path d="M6247 5830 c3 -11 9 -20 13 -20 5 0 6 9 3 20 -3 11 -9 20 -13 20 -5
0 -6 -9 -3 -20z"/>
<path d="M7272 5825 c0 -16 2 -22 5 -12 2 9 2 23 0 30 -3 6 -5 -1 -5 -18z"/>
<path d="M7210 5804 c0 -8 5 -12 10 -9 6 4 8 11 5 16 -9 14 -15 11 -15 -7z"/>
<path d="M7152 5798 c6 -18 28 -21 28 -4 0 9 -7 16 -16 16 -9 0 -14 -5 -12
-12z"/>
<path d="M8385 5780 c-3 -5 -2 -10 4 -10 5 0 13 5 16 10 3 6 2 10 -4 10 -5 0
-13 -4 -16 -10z"/>
<path d="M6400 5760 c0 -5 7 -10 16 -10 8 0 12 5 9 10 -3 6 -10 10 -16 10 -5
0 -9 -4 -9 -10z"/>
<path d="M7155 5760 c-3 -5 -1 -10 4 -10 6 0 11 5 11 10 0 6 -2 10 -4 10 -3 0
-8 -4 -11 -10z"/>
<path d="M6930 5744 c0 -8 5 -12 10 -9 6 3 10 10 10 16 0 5 -4 9 -10 9 -5 0
-10 -7 -10 -16z"/>
<path d="M7220 5750 c0 -7 -7 -10 -14 -7 -10 4 -13 1 -9 -9 7 -18 11 -18 29 0
9 9 10 17 4 21 -5 3 -10 1 -10 -5z"/>
<path d="M6580 5740 c0 -5 5 -10 10 -10 6 0 10 5 10 10 0 6 -4 10 -10 10 -5 0
-10 -4 -10 -10z"/>
<path d="M6506 5726 c21 -15 30 -14 19 3 -3 6 -14 11 -23 11 -13 0 -13 -2 4
-14z"/>
<path d="M8315 5730 c-3 -5 -1 -10 4 -10 6 0 11 5 11 10 0 6 -2 10 -4 10 -3 0
-8 -4 -11 -10z"/>
<path d="M6900 5710 c0 -5 7 -10 15 -10 8 0 15 5 15 10 0 6 -7 10 -15 10 -8 0
-15 -4 -15 -10z"/>
<path d="M7190 5700 c0 -5 5 -10 11 -10 5 0 7 5 4 10 -3 6 -8 10 -11 10 -2 0
-4 -4 -4 -10z"/>
<path d="M8275 5700 c-3 -6 1 -7 9 -4 18 7 21 14 7 14 -6 0 -13 -4 -16 -10z"/>
<path d="M7084 5662 c1 -17 5 -34 9 -38 10 -10 9 38 -2 55 -6 9 -8 4 -7 -17z"/>
<path d="M6806 5654 c-3 -8 1 -22 9 -30 13 -14 15 -12 15 15 0 33 -14 42 -24
15z"/>
<path d="M6870 5665 c0 -5 5 -17 10 -25 5 -8 10 -10 10 -5 0 6 -5 17 -10 25
-5 8 -10 11 -10 5z"/>
<path d="M6950 5660 c0 -5 5 -10 10 -10 6 0 10 5 10 10 0 6 -4 10 -10 10 -5 0
-10 -4 -10 -10z"/>
<path d="M6721 5615 l-1 -29 22 22 c12 12 19 25 14 29 -4 4 -11 1 -15 -6 -7
-11 -10 -11 -14 0 -3 8 -6 1 -6 -16z"/>
<path d="M6850 5630 c0 -5 5 -10 10 -10 6 0 10 5 10 10 0 6 -4 10 -10 10 -5 0
-10 -4 -10 -10z"/>
<path d="M6750 5595 c0 -8 5 -15 10 -15 6 0 10 7 10 15 0 8 -4 15 -10 15 -5 0
-10 -7 -10 -15z"/>
<path d="M6785 5600 c3 -5 8 -10 11 -10 2 0 4 5 4 10 0 6 -5 10 -11 10 -5 0
-7 -4 -4 -10z"/>
<path d="M5516 5196 c-27 -61 -58 -203 -47 -211 4 -2 1 -37 -6 -77 -29 -157
-23 -624 8 -644 4 -2 6 -11 2 -19 -3 -8 -1 -15 3 -15 5 0 9 -24 10 -54 0 -30
-4 -52 -8 -50 -11 7 -10 -13 3 -77 15 -74 18 -128 8 -135 -5 -3 -3 -14 4 -24
9 -16 9 -24 -1 -41 -12 -18 -9 -29 20 -87 40 -82 37 -76 43 -70 11 10 22 143
15 164 -11 28 -32 207 -32 266 1 90 53 167 160 235 50 32 52 36 35 48 -10 8
-15 15 -10 15 4 0 -3 17 -16 38 -49 78 -96 277 -113 477 -3 33 -10 87 -15 120
-6 33 -14 88 -18 122 -4 34 -10 65 -14 69 -3 4 -17 -19 -31 -50z"/>
</g>
</svg>
